<?xml version="1.0" encoding="UTF-8" standalone="no"?>
<!-- Created with Inkscape (http://www.inkscape.org/) -->

<svg
   xmlns:dc="http://purl.org/dc/elements/1.1/"
   xmlns:cc="http://creativecommons.org/ns#"
   xmlns:rdf="http://www.w3.org/1999/02/22-rdf-syntax-ns#"
   xmlns:svg="http://www.w3.org/2000/svg"
   xmlns="http://www.w3.org/2000/svg"
   xmlns:sodipodi="http://sodipodi.sourceforge.net/DTD/sodipodi-0.dtd"
   xmlns:inkscape="http://www.inkscape.org/namespaces/inkscape"
   width="4286.7798"
   height="4290.5396"
   id="svg5142"
   version="1.1"
   inkscape:version="0.48.3.1 r9886"
   sodipodi:docname="cof.svg">
  <defs
     id="defs5144" />
  <sodipodi:namedview
     id="base"
     pagecolor="#ffffff"
     bordercolor="#666666"
     borderopacity="1.0"
     inkscape:pageopacity="0.0"
     inkscape:pageshadow="2"
     inkscape:zoom="0.16363875"
     inkscape:cx="933.49279"
     inkscape:cy="1866.1428"
     inkscape:document-units="px"
     inkscape:current-layer="layer1"
     showgrid="true"
     fit-margin-top="0"
     fit-margin-left="0"
     fit-margin-right="0"
     fit-margin-bottom="0"
     inkscape:window-width="1896"
     inkscape:window-height="1027"
     inkscape:window-x="24"
     inkscape:window-y="0"
     inkscape:window-maximized="1"
     inkscape:snap-global="true"
     inkscape:snap-bbox="false"
     inkscape:snap-nodes="true"
     borderlayer="true"
     showguides="true"
     inkscape:guide-bbox="true">
    <inkscape:grid
       type="xygrid"
       id="grid4289"
       empspacing="5"
       visible="true"
       enabled="false"
       snapvisiblegridlinesonly="true"
       units="cm"
       spacingx="1cm"
       spacingy="1cm"
       originy="197.51641cm"
       originx="339.13639cm" />
  </sodipodi:namedview>
  <metadata
     id="metadata5147">
    <rdf:RDF>
      <cc:Work
         rdf:about="">
        <dc:format>image/svg+xml</dc:format>
        <dc:type
           rdf:resource="http://purl.org/dc/dcmitype/StillImage" />
        <dc:title />
      </cc:Work>
    </rdf:RDF>
  </metadata>
  <g
     inkscape:groupmode="layer"
     id="layer1"
     inkscape:label="bottom"
     style="display:inline"
     transform="translate(1928.7117,-5846.2234)"
     sodipodi:insensitive="true">
    <g
       id="g6333"
       style="opacity:0.7"
       transform="matrix(32,0,0,32,-7127.042,-15281.891)">
      <circle
         d="M 490,250 C 490,382.54834 382.54834,490 250,490 117.45166,490 10,382.54834 10,250 10,117.45166 117.45166,10 250,10 382.54834,10 490,117.45166 490,250 z"
         transform="matrix(0.19040833,-0.19057532,0.19040833,0.19057532,134.22459,727.29326)"
         cx="250"
         cy="250"
         r="240"
         id="circle11"
         sodipodi:cx="250"
         sodipodi:cy="250"
         sodipodi:rx="240"
         sodipodi:ry="240"
         style="fill:#885b3f;fill-opacity:1;stroke:#000000;stroke-opacity:1;display:inline" />
      <path
         style="fill:#2e6e3d;fill-opacity:1;stroke:none;display:inline"
         clip-path="url(#clip1)"
         d="m 246.875,558.625 c -7.88697,7.89389 -13.29239,17.31115 -16.25,27.3125 l -0.46875,1.6875 62.4375,16.75 -45.71875,-45.75 z m 45.71875,45.75 L 355,587.625 c -2.83288,-10.62118 -8.39367,-20.66762 -16.71875,-29 l -45.6875,45.75 z m 0,0 45.6875,45.71875 c 7.82205,-7.82891 13.24524,-17.15293 16.21875,-27.0625 l 0.0625,-0.25 c 0.16429,-0.55555 0.28842,-1.12856 0.4375,-1.6875 L 292.59375,604.375 z m 0,0 -62.40625,16.71875 c 2.83288,10.62118 8.36242,20.66762 16.6875,29 L 292.59375,604.375 z"
         transform="translate(-63.154907,122.92913)"
         id="path13"
         inkscape:connector-curvature="0" />
      <path
         style="fill:#15321c;fill-opacity:1;stroke:none;display:inline"
         clip-path="url(#clip1)"
         d="m 292.59375,539.6875 c -5.16857,0 -10.35732,0.61033 -15.40625,1.84375 -0.45324,0.11072 -0.89252,0.25434 -1.34375,0.375 l 16.75,62.46875 16.71875,-62.46875 c -5.47771,-1.46481 -11.0862,-2.21875 -16.71875,-2.21875 z m 0,64.6875 -16.71875,62.46875 c 10.49315,2.79928 21.5551,2.91827 32.09375,0.34375 0.45324,-0.11072 0.89252,-0.25434 1.34375,-0.375 L 292.59375,604.375 z"
         transform="translate(-63.154907,122.92913)"
         id="path17"
         inkscape:connector-curvature="0" />
    </g>
    <circle
       style="fill:none;stroke:#000000;stroke-width:2.86637878;stroke-miterlimit:4;stroke-opacity:1;stroke-dasharray:none;display:inline"
       sodipodi:ry="240"
       sodipodi:rx="240"
       sodipodi:cy="250"
       sodipodi:cx="250"
       id="circle73"
       r="240"
       cy="250"
       cx="250"
       transform="matrix(6.0930664,-6.0984104,6.0930664,6.0984104,-2831.8551,7991.4931)"
       d="M 490,250 C 490,382.54834 382.54834,490 250,490 117.45166,490 10,382.54834 10,250 10,117.45166 117.45166,10 250,10 382.54834,10 490,117.45166 490,250 z" />
    <path
       style="color:#000000;fill:none;stroke:#000000;stroke-width:22.67716408;stroke-linecap:butt;stroke-linejoin:round;stroke-miterlimit:4;stroke-opacity:1;stroke-dasharray:none;stroke-dashoffset:0;marker:none;visibility:visible;display:inline;overflow:visible;enable-background:accumulate"
       d="M -1239.4596,9456.6145 1668.7738,6526.1729"
       id="path12998"
       inkscape:connector-curvature="0" />
    <path
       inkscape:connector-curvature="0"
       id="path13000"
       d="M -317.58658,9992.9216 746.90078,5989.8656"
       style="color:#000000;fill:none;stroke:#000000;stroke-width:22.67716408;stroke-linecap:butt;stroke-linejoin:round;stroke-miterlimit:4;stroke-opacity:1;stroke-dasharray:none;stroke-dashoffset:0;marker:none;visibility:visible;display:inline;overflow:visible;enable-background:accumulate" />
    <path
       style="color:#000000;fill:none;stroke:#000000;stroke-width:22.67700005;stroke-linecap:butt;stroke-linejoin:round;stroke-miterlimit:4;stroke-opacity:1;stroke-dasharray:none;stroke-dashoffset:0;marker:none;visibility:visible;display:inline;overflow:visible;enable-background:accumulate"
       d="M 746.90094,9992.9201 -317.58674,5989.8673"
       id="path13002"
       inkscape:connector-curvature="0" />
    <path
       inkscape:connector-curvature="0"
       id="path13004"
       d="M 1668.7738,9456.6129 -1239.4596,6526.1745"
       style="color:#000000;fill:none;stroke:#000000;stroke-width:22.67700005;stroke-linecap:butt;stroke-linejoin:round;stroke-miterlimit:4;stroke-opacity:1;stroke-dasharray:none;stroke-dashoffset:0;marker:none;visibility:visible;display:inline;overflow:visible;enable-background:accumulate" />
    <path
       style="color:#000000;fill:none;stroke:#000000;stroke-width:22.67716408;stroke-linecap:butt;stroke-linejoin:round;stroke-miterlimit:4;stroke-opacity:1;stroke-dasharray:none;stroke-dashoffset:0;marker:none;visibility:visible;display:inline;overflow:visible;enable-background:accumulate"
       d="M 2201.0175,8527.7009 -1771.7032,7455.0865"
       id="path13006"
       inkscape:connector-curvature="0" />
    <path
       inkscape:connector-curvature="0"
       id="path13008"
       d="M 2201.0173,7455.0865 -1771.7031,8527.7009"
       style="color:#000000;fill:none;stroke:#000000;stroke-width:22.67716408;stroke-linecap:butt;stroke-linejoin:round;stroke-miterlimit:4;stroke-opacity:1;stroke-dasharray:none;stroke-dashoffset:0;marker:none;visibility:visible;display:inline;overflow:visible;enable-background:accumulate" />
    <circle
       d="M 490,250 C 490,382.54834 382.54834,490 250,490 117.45166,490 10,382.54834 10,250 10,117.45166 117.45166,10 250,10 382.54834,10 490,117.45166 490,250 z"
       transform="matrix(2.5221585,-2.5243707,2.5221585,2.5243707,-1046.4012,7991.4931)"
       cx="250"
       cy="250"
       r="240"
       id="circle12053"
       sodipodi:cx="250"
       sodipodi:cy="250"
       sodipodi:rx="240"
       sodipodi:ry="240"
       style="fill:#ffffff;fill-opacity:1;stroke:#000000;stroke-width:6.35488701;stroke-miterlimit:4;stroke-opacity:1;stroke-dasharray:none;display:inline" />
  </g>
  <g
     inkscape:groupmode="layer"
     id="layer2"
     inkscape:label="text"
     sodipodi:insensitive="true">
    <g
       id="g5698"
       transform="matrix(0.95,0,0,0.95,107.50895,109.88532)">
      <path
         id="text19964"
         d="m 2363.2774,1422.8553 45.2614,-24.5278 4.5261,0 0,174.4377 c 0,11.5786 0.4116,18.7896 1.2344,21.6334 0.9143,2.8438 2.7431,5.0274 5.4863,6.5509 2.7429,1.5237 8.3207,2.3868 16.7329,2.5898 l 0,5.6369 -69.9494,0 0,-5.6369 c 8.778,-0.2028 14.4471,-1.0155 17.0074,-2.4376 2.5601,-1.5233 4.3432,-3.5036 5.3491,-5.9413 1.0057,-2.5392 1.5086,-10.0042 1.5087,-22.3952 l 0,-111.5182 c -10e-5,-15.0316 -0.457,-24.6801 -1.3717,-28.946 -0.64,-3.2499 -1.8287,-5.6368 -3.566,-7.1604 -1.6459,-1.5232 -3.6575,-2.285 -6.0348,-2.2853 -3.3833,3e-4 -8.0923,1.5746 -14.127,4.7228 l -2.0574,-4.7228 m 249.4862,122.9445 -27.4312,13.5588 0,49.8176 -11.7954,0 0,-43.876 -49.1017,24.3756 0,51.4934 -11.7953,0 0,-45.5519 -27.4312,13.5589 0,-25.5943 27.4312,-13.5588 0,-75.2598 -27.4312,13.559 0,-25.5944 27.4312,-13.5589 0,-49.8176 11.7953,0 0,43.876 49.1017,-24.3755 0,-53.0169 11.7954,0 0,47.0752 27.4312,-13.5588 0,25.5943 -27.4312,13.5589 0,75.2597 27.4312,-13.5589 0,25.5944 m -39.2266,-6.0939 0,-75.2597 -49.1017,24.3755 0,75.2597 49.1017,-24.3755"
         style="font-size:144px;font-style:normal;font-variant:normal;font-weight:normal;font-stretch:normal;text-align:start;line-height:0%;writing-mode:lr-tb;text-anchor:start;fill:#777777;fill-opacity:1;stroke:none;font-family:Times New Roman"
         inkscape:connector-curvature="0" />
      <path
         id="text25215"
         d="m 2718.7898,1839.4029 -13.0298,39.7626 -109.7245,0 0,-5.6369 c 32.2772,-32.7039 54.9993,-59.4154 68.1663,-80.1347 13.1668,-20.7192 19.7503,-39.661 19.7504,-56.8257 -1e-4,-13.1016 -3.6119,-23.8675 -10.8353,-32.2975 -7.2236,-8.4298 -15.8644,-12.6447 -25.9224,-12.6449 -9.1438,2e-4 -17.3731,2.9963 -24.688,8.9886 -7.2236,5.8909 -12.5727,14.5747 -16.0472,26.0513 l -5.0748,0 c 2.2859,-18.7893 8.1379,-33.2115 17.5559,-43.2666 9.5095,-10.0548 21.3505,-15.0822 35.5234,-15.0824 15.087,2e-4 27.6596,5.3831 37.7178,16.1489 10.1493,10.766 15.2241,23.4615 15.2242,38.0867 -1e-4,10.4614 -2.1946,20.9226 -6.5835,31.3836 -6.7664,16.4537 -17.7389,33.872 -32.9173,52.2551 -22.7679,27.6257 -36.9863,44.2824 -42.6554,49.97 l 48.5531,0 c 9.8751,10e-5 16.7786,-0.4065 20.7105,-1.2187 4.0231,-0.8121 7.6349,-2.4376 10.8353,-4.8752 3.2001,-2.5391 5.989,-6.0938 8.3664,-10.6642 l 5.0749,0 m 153.6142,-23.614 -27.4311,13.559 0,49.8176 -11.7954,0 0,-43.8762 -49.1017,24.3758 0,51.4933 -11.7954,0 0,-45.5518 -27.431,13.5589 0,-25.5943 27.431,-13.559 0,-75.2595 -27.431,13.5589 0,-25.5945 27.431,-13.5589 0,-49.8176 11.7954,0 0,43.8761 49.1017,-24.3756 0,-53.0168 11.7954,0 0,47.0752 27.4311,-13.5589 0,25.5944 -27.4311,13.5589 0,75.2597 27.4311,-13.559 0,25.5943 m -39.2265,-6.0938 0,-75.2597 -49.1017,24.3756 0,75.2596 49.1017,-24.3755"
         style="font-size:144px;font-style:normal;font-variant:normal;font-weight:normal;font-stretch:normal;text-align:start;line-height:0%;writing-mode:lr-tb;text-anchor:start;fill:#777777;fill-opacity:1;stroke:none;font-family:Times New Roman"
         inkscape:connector-curvature="0" />
      <path
         id="text25254"
         d="m 2718.2637,2055.6144 c 5.3034,-13.9142 11.9783,-24.6293 20.0248,-32.1453 8.1379,-7.6172 18.2416,-11.4258 30.3114,-11.426 14.9042,2e-4 26.3338,5.3831 34.2889,16.1488 6.0347,8.0238 9.0521,16.6061 9.0523,25.7467 -2e-4,15.0319 -8.5038,30.5712 -25.511,46.6183 11.4295,4.9768 20.0704,12.0864 25.9224,21.3286 5.8519,9.2426 8.7779,20.11 8.778,32.6024 -1e-4,17.8756 -5.1206,33.3641 -15.3614,46.4659 -13.3499,17.0631 -32.6889,25.5945 -58.0169,25.5945 -12.5269,0 -21.0763,-1.7267 -25.6481,-5.1798 -4.4804,-3.4533 -6.7206,-7.1604 -6.7206,-11.1215 0,-2.9454 1.0515,-5.5352 3.1546,-7.7697 2.1945,-2.2345 4.8004,-3.3515 7.8179,-3.3515 2.2859,0 4.6175,0.4064 6.9949,1.2187 1.5544,0.5074 5.0747,2.3868 10.5609,5.6368 5.4863,3.1485 9.2809,5.0275 11.384,5.6368 3.3831,1.1173 6.9949,1.6759 10.8353,1.6758 9.3265,10e-5 17.4187,-4.0117 24.2765,-12.0353 6.9491,-8.0237 10.4237,-17.52 10.4238,-28.489 -1e-4,-8.0236 -1.6002,-15.844 -4.8004,-23.4615 -2.3774,-5.6876 -4.9834,-10.0041 -7.8179,-12.9495 -3.9318,-4.0625 -9.3267,-7.7188 -16.1844,-10.969 -6.8577,-3.3516 -13.8527,-5.0274 -20.9847,-5.0275 l -4.389,0 0,-4.5705 c 7.2234,-1.0155 14.447,-3.9101 21.6706,-8.6837 7.3149,-4.7735 12.6182,-10.5119 15.91,-17.2153 3.2917,-6.7031 4.9376,-14.0666 4.9377,-22.0904 -10e-5,-10.4611 -2.9719,-18.891 -8.9152,-25.2897 -5.852,-6.5 -13.167,-9.7501 -21.9449,-9.7502 -14.1728,10e-5 -26.0138,8.4301 -35.5233,25.2896 l -4.5262,-2.4375 m 268.1394,103.901 -27.4312,13.5589 0,49.8176 -11.7953,0 0,-43.876 -49.1018,24.3755 0,51.4934 -11.7953,0 0,-45.5519 -27.4312,13.559 0,-25.5944 27.4312,-13.5589 0,-75.2596 -27.4312,13.5589 0,-25.5944 27.4312,-13.5588 0,-49.8177 11.7953,0 0,43.876 49.1018,-24.3755 0,-53.017 11.7953,0 0,47.0754 27.4312,-13.5589 0,25.5943 -27.4312,13.559 0,75.2596 27.4312,-13.5589 0,25.5944 m -39.2265,-6.094 0,-75.2596 -49.1018,24.3756 0,75.2596 49.1018,-24.3756"
         style="font-size:144px;font-style:normal;font-variant:normal;font-weight:normal;font-stretch:normal;text-align:start;line-height:0%;writing-mode:lr-tb;text-anchor:start;fill:#777777;fill-opacity:1;stroke:none;font-family:Times New Roman"
         inkscape:connector-curvature="0" />
      <path
         id="text25293"
         d="m 2740.1557,2494.3523 0,21.6333 -24.9623,0 0,54.5404 -22.6307,0 0,-54.5404 -78.7273,0 0,-19.5005 86.2708,-136.8079 15.0872,0 0,134.6751 24.9623,0 m -47.593,0 0,-102.5298 -65.2861,102.5298 65.2861,0 m 199.2871,12.7972 -27.4311,13.5589 0,49.8176 -11.7954,0 0,-43.876 -49.1017,24.3755 0,51.4934 -11.7954,0 0,-45.5519 -27.4311,13.559 0,-25.5944 27.4311,-13.5588 0,-75.2597 -27.4311,13.5589 0,-25.5944 27.4311,-13.5589 0,-49.8176 11.7954,0 0,43.8761 49.1017,-24.3756 0,-53.0169 11.7954,0 0,47.0752 27.4311,-13.5588 0,25.5944 -27.4311,13.5589 0,75.2596 27.4311,-13.5589 0,25.5944 m -39.2265,-6.0939 0,-75.2597 -49.1017,24.3756 0,75.2596 49.1017,-24.3755"
         style="font-size:144px;font-style:normal;font-variant:normal;font-weight:normal;font-stretch:normal;text-align:start;line-height:0%;writing-mode:lr-tb;text-anchor:start;fill:#777777;fill-opacity:1;stroke:none;font-family:Times New Roman"
         inkscape:connector-curvature="0" />
      <path
         id="text25332"
         d="m 2480.2393,2640.2676 -10.6982,25.899 -55.9595,0 -12.2068,27.7273 c 24.2307,3.9612 43.4325,13.9652 57.6053,30.0123 12.1611,13.8131 18.2416,30.0634 18.2417,48.7513 -10e-5,10.8675 -2.0117,20.9224 -6.0348,30.1648 -3.9319,9.2424 -8.9152,17.1137 -14.95,23.6139 -6.0349,6.5001 -12.7555,11.7306 -20.1618,15.6916 -10.5154,5.5861 -21.3049,8.3792 -32.3688,8.3792 -11.1553,0 -19.2932,-2.082 -24.4136,-6.2462 -5.0291,-4.2658 -7.5437,-8.9377 -7.5436,-14.016 -1e-4,-2.8438 1.0514,-5.3322 3.1545,-7.465 2.1031,-2.2344 4.7548,-3.3517 7.9551,-3.3517 2.3773,0 4.4347,0.4065 6.172,1.2188 1.8287,0.8121 4.8918,2.8945 9.1895,6.2462 6.8577,5.2814 13.8068,7.9221 20.8476,7.9221 10.698,0 20.0703,-4.4689 28.1169,-13.4066 8.1378,-9.0392 12.2068,-20.0083 12.2068,-32.9071 0,-12.4924 -3.6118,-24.1215 -10.8353,-34.8875 -7.2236,-10.8674 -17.1902,-19.2464 -29.8999,-25.1374 -9.9667,-4.5702 -23.545,-7.211 -40.7352,-7.922 l 35.6604,-80.287 66.6577,0 m 160.4721,143.2065 -27.4311,13.5589 0,49.8176 -11.7954,0 0,-43.876 -49.1018,24.3755 0,51.4935 -11.7953,0 0,-45.5518 -27.4312,13.5588 0,-25.5943 27.4312,-13.5589 0,-75.2597 -27.4312,13.5589 0,-25.5944 27.4312,-13.5589 0,-49.8176 11.7953,0 0,43.8761 49.1018,-24.3756 0,-53.0169 11.7954,0 0,47.0754 27.4311,-13.559 0,25.5944 -27.4311,13.5589 0,75.2597 27.4311,-13.5589 0,25.5943 m -39.2265,-6.0939 0,-75.2597 -49.1018,24.3756 0,75.2597 49.1018,-24.3756"
         style="font-size:144px;font-style:normal;font-variant:normal;font-weight:normal;font-stretch:normal;text-align:start;line-height:0%;writing-mode:lr-tb;text-anchor:start;fill:#777777;fill-opacity:1;stroke:none;font-family:Times New Roman"
         inkscape:connector-curvature="0" />
      <path
         id="text25481"
         d="m 1686.9742,1422.5147 45.2614,-24.528 4.5261,0 0,174.4378 c -10e-5,11.5785 0.4116,18.7896 1.2345,21.6333 0.9142,2.8439 2.7429,5.0275 5.4861,6.5512 2.7431,1.5233 8.3207,2.3866 16.7331,2.5898 l 0,5.6367 -69.9494,0 0,-5.6367 c 8.7779,-0.2036 14.4469,-1.0157 17.0072,-2.4375 2.5603,-1.5237 4.3432,-3.5041 5.3491,-5.9416 1.0057,-2.5392 1.5087,-10.0042 1.5087,-22.3952 l 0,-111.5183 c 0,-15.0313 -0.4569,-24.6802 -1.3715,-28.946 -0.6401,-3.2499 -1.8288,-5.6367 -3.566,-7.1603 -1.646,-1.5233 -3.6576,-2.2851 -6.0349,-2.2852 -3.3832,10e-5 -8.0922,1.5746 -14.1271,4.7227 l -2.0573,-4.7227 m 150.7341,63.0718 c 8.9607,-10.1563 16.9615,-17.469 24.0023,-21.938 7.0405,-4.4687 14.3097,-6.7032 21.8076,-6.7032 10.6981,0 19.5675,3.7073 26.6083,11.1213 7.0405,7.3127 10.5609,16.7077 10.561,28.1843 -10e-5,7.2112 -1.7832,15.2348 -5.3491,24.0709 -3.5662,8.8361 -9.281,18.9927 -17.1444,30.4695 -7.7723,11.4769 -18.2876,23.5122 -31.5459,36.1062 l -28.9398,27.5749 -8.0922,0 0,-222.4273 8.0922,0 0,93.5414 m 0,116.6982 c 8.9607,-8.3285 19.1102,-19.9067 30.4485,-34.7354 11.3382,-14.9299 18.7903,-27.0161 22.3564,-36.2585 3.566,-9.3439 5.349,-18.3324 5.3491,-26.9654 -10e-5,-8.2269 -2.0118,-14.8284 -6.0348,-19.8054 -4.0234,-5.0781 -9.1896,-7.6171 -15.4987,-7.6173 -10.5152,2e-4 -22.7222,7.0589 -36.6205,21.1762 l 0,104.2058"
         style="font-size:144px;font-style:normal;font-variant:normal;font-weight:normal;font-stretch:normal;text-align:start;line-height:0%;writing-mode:lr-tb;text-anchor:start;fill:#777777;fill-opacity:1;stroke:none;font-family:Times New Roman"
         inkscape:connector-curvature="0" />
      <path
         id="text25501"
         d="m 1531.6098,1836.4838 -13.0298,39.7626 -109.7244,0 0,-5.6368 c 32.2773,-32.7038 54.9993,-59.4156 68.1663,-80.1349 13.1669,-20.719 19.7503,-39.6609 19.7504,-56.8254 -10e-5,-13.1019 -3.6119,-23.8677 -10.8352,-32.2977 -7.2237,-8.4296 -15.8645,-12.6448 -25.9225,-12.6448 -9.1438,0 -17.3731,2.9964 -24.688,8.9885 -7.2235,5.8908 -12.5726,14.5746 -16.0472,26.0513 l -5.0748,0 c 2.286,-18.7894 8.1379,-33.2115 17.556,-43.2665 9.5094,-10.0548 21.3505,-15.0824 35.5233,-15.0824 15.087,0 27.6596,5.383 37.7177,16.1488 10.1495,10.766 15.2242,23.4616 15.2243,38.0868 -10e-5,10.4613 -2.1945,20.9225 -6.5834,31.3836 -6.7665,16.4536 -17.7389,33.8719 -32.9174,52.2552 -22.7678,27.6256 -36.9863,44.2823 -42.6554,49.9699 l 48.5531,0 c 9.8751,0 16.7787,-0.4065 20.7105,-1.2188 4.0231,-0.8121 7.6349,-2.4374 10.8353,-4.8751 3.2002,-2.5392 5.989,-6.0939 8.3665,-10.6643 l 5.0747,0 m 54.8623,-83.4865 c 8.9608,-10.1563 16.9616,-17.469 24.0023,-21.9381 7.0406,-4.4686 14.3098,-6.7029 21.8077,-6.7031 10.698,2e-4 19.5674,3.7073 26.6082,11.1213 7.0405,7.3129 10.5609,16.7076 10.561,28.1842 -10e-5,7.2113 -1.7832,15.2349 -5.349,24.071 -3.5662,8.8361 -9.281,18.9926 -17.1446,30.4695 -7.7722,11.4768 -18.2874,23.5124 -31.5457,36.1064 l -28.9399,27.5748 -8.0921,0 0,-222.4271 8.0921,0 0,93.5411 m 0,116.698 c 8.9608,-8.3281 19.1103,-19.9066 30.4486,-34.735 11.338,-14.9299 18.7902,-27.0164 22.3563,-36.2588 3.566,-9.3439 5.349,-18.3323 5.3491,-26.9653 -10e-5,-8.2266 -2.0117,-14.8284 -6.0349,-19.8051 -4.0233,-5.0782 -9.1895,-7.6174 -15.4985,-7.6176 -10.5154,2e-4 -22.7222,7.059 -36.6206,21.1764 l 0,104.2054"
         style="font-size:144px;font-style:normal;font-variant:normal;font-weight:normal;font-stretch:normal;text-align:start;line-height:0%;writing-mode:lr-tb;text-anchor:start;fill:#777777;fill-opacity:1;stroke:none;font-family:Times New Roman"
         inkscape:connector-curvature="0" />
      <path
         id="text25540"
         d="m 1316.8351,2056.6033 c 5.3033,-13.9143 11.9782,-24.6293 20.0247,-32.1453 8.1378,-7.6171 18.2416,-11.4258 30.3114,-11.4259 14.9042,1e-4 26.3338,5.3829 34.2889,16.1488 6.0348,8.0237 9.0522,16.6058 9.0523,25.7466 -10e-5,15.0319 -8.5038,30.5711 -25.5109,46.6183 11.4295,4.9767 20.0703,12.0863 25.9224,21.3287 5.8518,9.2424 8.7778,20.1099 8.7779,32.6022 -10e-5,17.8756 -5.1206,33.3641 -15.3614,46.4661 -13.35,17.0629 -32.6889,25.5943 -58.0168,25.5943 -12.5269,0 -21.0763,-1.7266 -25.6481,-5.1799 -4.4804,-3.4531 -6.7207,-7.1602 -6.7207,-11.1213 0,-2.9454 1.0515,-5.5353 3.1546,-7.7696 2.1945,-2.2345 4.8005,-3.3518 7.8179,-3.3518 2.2859,0 4.6175,0.4065 6.9949,1.2188 1.5544,0.5075 5.0748,2.3868 10.561,5.637 5.4862,3.1485 9.2808,5.0275 11.3839,5.6367 3.3831,1.1174 6.9949,1.676 10.8353,1.676 9.3265,0 17.4187,-4.0119 24.2765,-12.0356 6.9492,-8.0235 10.4238,-17.5197 10.4239,-28.489 -10e-5,-8.0237 -1.6003,-15.844 -4.8005,-23.4615 -2.3774,-5.6874 -4.9834,-10.0038 -7.8178,-12.9494 -3.9319,-4.0626 -9.3267,-7.7189 -16.1844,-10.9691 -6.8578,-3.3516 -13.8528,-5.0273 -20.9848,-5.0275 l -4.389,0 0,-4.5703 c 7.2235,-1.0156 14.447,-3.9102 21.6705,-8.6837 7.315,-4.7736 12.6183,-10.5121 15.9102,-17.2156 3.2916,-6.7028 4.9375,-14.0665 4.9375,-22.0903 0,-10.4609 -2.9718,-18.8907 -8.915,-25.2895 -5.8521,-6.5001 -13.1671,-9.7501 -21.9449,-9.7501 -14.1728,0 -26.014,8.4299 -35.5234,25.2894 l -4.5261,-2.4375 m 169.3872,44.0283 c 8.9608,-10.1562 16.9615,-17.4689 24.0023,-21.938 7.0405,-4.4686 14.3098,-6.703 21.8076,-6.7031 10.6981,1e-4 19.5675,3.7072 26.6083,11.1213 7.0405,7.3128 10.5609,16.7076 10.561,28.1841 -10e-5,7.2113 -1.7832,15.2349 -5.3491,24.0711 -3.5662,8.8363 -9.281,18.9926 -17.1444,30.4694 -7.7723,11.4769 -18.2876,23.5123 -31.5459,36.1064 l -28.9398,27.5747 -8.0922,0 0,-222.427 8.0922,0 0,93.5411 m 0,116.6982 c 8.9608,-8.3282 19.1102,-19.9068 30.4486,-34.7351 11.3381,-14.9301 18.7903,-27.0164 22.3564,-36.2588 3.5659,-9.3439 5.349,-18.3324 5.349,-26.9654 0,-8.2265 -2.0117,-14.8285 -6.0348,-19.8051 -4.0234,-5.0781 -9.1895,-7.6173 -15.4986,-7.6175 -10.5153,2e-4 -22.7223,7.0589 -36.6206,21.1763 l 0,104.2056"
         style="font-size:144px;font-style:normal;font-variant:normal;font-weight:normal;font-stretch:normal;text-align:start;line-height:0%;writing-mode:lr-tb;text-anchor:start;fill:#777777;fill-opacity:1;stroke:none;font-family:Times New Roman"
         inkscape:connector-curvature="0" />
      <path
         id="text25597"
         d="m 1516.5256,2492.3699 0,21.6334 -24.9624,0 0,54.5404 -22.6306,0 0,-54.5404 -78.7274,0 0,-19.5005 86.2709,-136.8079 15.0871,0 0,134.675 24.9624,0 m -47.593,0 0,-102.5298 -65.2861,102.5298 65.2861,0 m 100.535,-47.0753 c 8.9608,-10.1565 16.9616,-17.4691 24.0023,-21.938 7.0406,-4.4688 14.3098,-6.7031 21.8077,-6.7034 10.6981,3e-4 19.5674,3.7073 26.6082,11.1213 7.0405,7.313 10.5609,16.7076 10.561,28.1843 -10e-5,7.2114 -1.7831,15.2349 -5.3491,24.0709 -3.5662,8.8364 -9.281,18.9929 -17.1444,30.4695 -7.7722,11.4769 -18.2876,23.5124 -31.5458,36.1064 l -28.9399,27.5748 -8.0921,0 0,-222.4271 8.0921,0 0,93.5413 m 0,116.698 c 8.9608,-8.3283 19.1104,-19.9064 30.4486,-34.735 11.3381,-14.93 18.7903,-27.0162 22.3564,-36.2589 3.5659,-9.3436 5.349,-18.3324 5.3491,-26.9654 -10e-5,-8.2265 -2.0117,-14.8283 -6.0349,-19.8051 -4.0233,-5.0781 -9.1895,-7.6173 -15.4986,-7.6173 -10.5153,0 -22.7221,7.0587 -36.6206,21.1762 l 0,104.2055"
         style="font-size:144px;font-style:normal;font-variant:normal;font-weight:normal;font-stretch:normal;text-align:start;line-height:0%;writing-mode:lr-tb;text-anchor:start;fill:#777777;fill-opacity:1;stroke:none;font-family:Times New Roman"
         inkscape:connector-curvature="0" />
      <path
         id="text25636"
         d="m 1758.8664,2641.2562 -10.6982,25.8993 -55.9596,0 -12.2067,27.7271 c 24.2307,3.9611 43.4325,13.9653 57.6053,30.0124 12.161,13.8131 18.2416,30.0633 18.2417,48.7512 -10e-5,10.8676 -2.0118,20.9225 -6.0348,30.1649 -3.9319,9.2424 -8.9153,17.1135 -14.95,23.6138 -6.035,6.5 -12.7556,11.7308 -20.1619,15.6917 -10.5153,5.586 -21.3049,8.3792 -32.3687,8.3792 -11.1553,0 -19.2933,-2.0821 -24.4137,-6.2462 -5.0291,-4.2659 -7.5436,-8.9377 -7.5436,-14.0161 0,-2.8438 1.0515,-5.3321 3.1545,-7.4649 2.1031,-2.2344 4.7548,-3.3515 7.9551,-3.3519 2.3774,4e-4 4.4347,0.4065 6.172,1.2189 1.8287,0.8129 4.8919,2.8947 9.1895,6.2464 6.8577,5.2814 13.8069,7.9219 20.8476,7.9219 10.698,0 20.0704,-4.4689 28.1169,-13.4065 8.1378,-9.0393 12.2068,-20.0084 12.2069,-32.9071 -10e-5,-12.4924 -3.6119,-24.1216 -10.8354,-34.8877 -7.2236,-10.8671 -17.1902,-19.2462 -29.8998,-25.137 -9.9667,-4.5703 -23.5451,-7.2111 -40.7352,-7.9223 l 35.6603,-80.2871 66.6578,0 m 61.7199,83.3343 c 8.9608,-10.1567 16.9616,-17.4693 24.0023,-21.9381 7.0406,-4.4688 14.3098,-6.7032 21.8077,-6.7034 10.698,2e-4 19.5674,3.7072 26.6083,11.1213 7.0404,7.3129 10.5609,16.7076 10.5609,28.1845 0,7.2111 -1.7831,15.2346 -5.349,24.0707 -3.5662,8.8363 -9.281,18.9928 -17.1445,30.4695 -7.7722,11.4769 -18.2875,23.5124 -31.5458,36.1064 l -28.9399,27.575 -8.0921,0 0,-222.4274 8.0921,0 0,93.5415 m 0,116.698 c 8.9608,-8.3284 19.1103,-19.9067 30.4486,-34.7352 11.3381,-14.93 18.7903,-27.0161 22.3564,-36.2588 3.566,-9.3437 5.349,-18.3324 5.3491,-26.9656 -10e-5,-8.2265 -2.0118,-14.8282 -6.0349,-19.805 -4.0234,-5.0781 -9.1895,-7.6173 -15.4986,-7.6173 -10.5153,0 -22.7222,7.0587 -36.6206,21.1762 l 0,104.2057"
         style="font-size:144px;font-style:normal;font-variant:normal;font-weight:normal;font-stretch:normal;text-align:start;line-height:0%;writing-mode:lr-tb;text-anchor:start;fill:#777777;fill-opacity:1;stroke:none;font-family:Times New Roman"
         inkscape:connector-curvature="0" />
      <g
         id="g5692">
        <path
           inkscape:connector-curvature="0"
           style="font-size:144px;font-style:normal;font-variant:normal;font-weight:normal;font-stretch:normal;text-align:start;line-height:0%;writing-mode:lr-tb;text-anchor:start;fill:#777777;fill-opacity:1;stroke:none;font-family:Times New Roman"
           d="m 2002.9542,2764.7537 0,5.6369 c -6.9981,1.3206 -12.7239,4.0119 -17.1772,8.0744 -4.4004,3.9613 -8.7743,10.0551 -13.1215,18.2818 -4.2943,8.2268 -7.8729,17.4184 -10.7357,27.5747 -2.8098,10.0552 -5.169,22.0396 -7.0776,35.9541 7.6343,-10.0548 15.2951,-15.0823 22.9824,-15.0825 7.3692,2e-4 13.7576,5.6878 19.1653,17.0629 5.4076,11.3754 8.1114,26.0008 8.1114,43.8761 0,17.2661 -2.7304,33.0086 -8.1909,47.2276 -6.5741,17.2662 -15.2687,25.8991 -26.0839,25.8991 -7.3693,0 -13.6252,-4.6718 -18.7677,-14.0158 -10.073,-18.18 -15.1095,-41.7432 -15.1095,-70.6894 0,-18.4846 1.9351,-36.0553 5.8053,-52.712 3.8701,-16.6566 9.3837,-31.4343 16.5409,-44.3332 7.2102,-12.8986 14.1023,-21.5823 20.6762,-26.0513 6.574,-4.4687 12.6973,-6.7032 18.3701,-6.7034 l 4.6124,0 m -49.4639,106.6432 c -0.9543,13.7113 -1.4315,24.7818 -1.4315,33.2118 0,9.7501 0.9278,20.3639 2.7834,31.8404 1.9086,11.3753 4.7183,20.4147 8.4295,27.1179 2.7038,4.7737 5.9908,7.1603 9.861,7.1603 4.6123,0 8.721,-4.164 12.3262,-12.4924 3.658,-8.3282 5.4871,-20.2114 5.4871,-35.6492 0,-17.3676 -1.8025,-32.3992 -5.4075,-45.0949 -3.6052,-12.6955 -8.7212,-19.0433 -15.3482,-19.0435 -2.0146,2e-4 -4.1883,0.813 -6.521,2.4376 -2.2797,1.6253 -5.6727,5.1293 -10.179,10.512 m 82.9435,-19.0434 c 5.1955,-10.1564 9.8344,-17.469 13.9166,-21.9381 4.0822,-4.4686 8.297,-6.7032 12.6443,-6.7032 6.2029,0 11.3454,3.7073 15.4277,11.1213 4.0822,7.3127 6.1233,16.7076 6.1234,28.1843 -10e-5,7.2113 -1.0339,15.2348 -3.1014,24.0709 -2.0678,8.8361 -5.3813,18.9927 -9.9406,30.4696 -4.5064,11.4768 -10.6032,23.5121 -18.2905,36.1062 l -16.7795,27.575 -4.692,0 0,-222.4274 4.692,0 0,93.5414 m 0,116.6981 c 5.1955,-8.3284 11.0803,-19.9067 17.6542,-34.7354 6.574,-14.9299 10.8948,-27.0161 12.9625,-36.2585 2.0676,-9.344 3.1014,-18.3323 3.1014,-26.9654 0,-8.2269 -1.1664,-14.8284 -3.4991,-19.8053 -2.3326,-5.0782 -5.3281,-7.6172 -8.9861,-7.6173 -6.0969,1e-4 -13.1746,7.0588 -21.2329,21.1762 l 0,104.2057"
           id="text25695" />
        <path
           inkscape:connector-curvature="0"
           style="font-size:144px;font-style:normal;font-variant:normal;font-weight:normal;font-stretch:normal;text-align:start;line-height:0%;writing-mode:lr-tb;text-anchor:start;fill:#777777;fill-opacity:1;stroke:none;font-family:Times New Roman"
           d="m 2226.2871,2766.7361 0,5.6368 c -7.2941,1.3206 -13.262,4.0121 -17.9035,8.0745 -4.5865,3.9612 -9.1452,10.0551 -13.6763,18.2816 -4.4759,8.227 -8.2058,17.4186 -11.1897,27.575 -2.9287,10.055 -5.3877,22.0397 -7.3769,35.9539 7.9571,-10.0548 15.9418,-15.0822 23.9541,-15.0824 7.6809,2e-4 14.3394,5.6878 19.9758,17.063 5.6361,11.3753 8.4543,26.0006 8.4544,43.876 -1e-4,17.2661 -2.8458,33.0086 -8.5374,47.2277 -6.8519,17.266 -15.9142,25.8991 -27.1867,25.8991 -7.6809,0 -14.2013,-4.6721 -19.5612,-14.016 -10.499,-18.1802 -15.7485,-41.7431 -15.7485,-70.6892 0,-18.4848 2.0169,-36.0555 6.0507,-52.7122 4.0338,-16.6565 9.7806,-31.4342 17.2405,-44.3331 7.515,-12.8985 14.6984,-21.5823 21.5505,-26.0514 6.8519,-4.4687 13.2341,-6.7031 19.1468,-6.7033 l 4.8074,0 m -51.5555,106.6432 c -0.9947,13.7113 -1.4919,24.7819 -1.4919,33.2117 0,9.7503 0.9669,20.3639 2.901,31.8406 1.9892,11.3753 4.9179,20.4146 8.786,27.1179 2.8181,4.7735 6.244,7.1603 10.2779,7.1603 4.8074,0 9.0898,-4.1642 12.8474,-12.4925 3.8128,-8.3283 5.7191,-20.2114 5.7192,-35.6493 -1e-4,-17.3675 -1.8789,-32.3992 -5.6363,-45.0948 -3.7575,-12.6956 -9.0899,-19.0433 -15.9971,-19.0434 -2.0998,1e-4 -4.3654,0.8129 -6.7967,2.4375 -2.3761,1.6252 -5.9126,5.1291 -10.6095,10.512 m 146.129,40.8291 -16.5773,13.5589 0,49.8177 -7.1282,0 0,-43.8761 -29.6735,24.3755 0,51.4935 -7.1282,0 0,-45.5519 -16.5773,13.559 0,-25.5945 16.5773,-13.5589 0,-75.2596 -16.5773,13.5589 0,-25.5944 16.5773,-13.5588 0,-49.8176 7.1282,0 0,43.876 29.6735,-24.3756 0,-53.0169 7.1282,0 0,47.0754 16.5773,-13.5589 0,25.5943 -16.5773,13.5589 0,75.2596 16.5773,-13.5589 0,25.5944 m -23.7055,-6.0939 0,-75.2596 -29.6735,24.3755 0,75.2597 29.6735,-24.3756"
           id="text25371" />
        <g
           transform="matrix(6.1280915,0,0,11.949041,1.481168,-12.069996)"
           style="font-size:21.84345245px;font-style:normal;font-variant:normal;font-weight:normal;font-stretch:normal;text-align:start;line-height:0%;writing-mode:lr-tb;text-anchor:start;fill:#777777;fill-opacity:1;stroke:none;font-family:Verdana"
           id="text8043">
          <path
             d="m 350.77581,231.89744 -7.64734,19.83829 -1.84517,0 7.61534,-19.83829 1.87717,0"
             id="path4002"
             inkscape:connector-curvature="0" />
        </g>
      </g>
    </g>
    <g
       style="font-size:70px;font-style:normal;font-variant:normal;font-weight:normal;font-stretch:normal;text-align:start;line-height:0%;writing-mode:lr-tb;text-anchor:start;fill:#000000;fill-opacity:1;stroke:none;font-family:Verdana"
       id="text1455"
       transform="matrix(8.5571502,0,0,8.5571502,-4.629817,12.374228)">
      <path
         d="m 269.75369,72.697495 c -1.2533,0.546878 -2.39262,1.059572 -3.41797,1.538085 -1.00264,0.478518 -2.32426,0.979819 -3.96484,1.503907 -1.39001,0.432943 -2.90531,0.797526 -4.5459,1.09375 -1.61787,0.319009 -3.4066,0.478514 -5.36621,0.478515 -3.69143,-10e-7 -7.05243,-0.512695 -10.08301,-1.538086 -3.00783,-1.048175 -5.62827,-2.677405 -7.86133,-4.887695 -2.1875,-2.164706 -3.89649,-4.910471 -5.12695,-8.237305 -1.23047,-3.349592 -1.84571,-7.234679 -1.8457,-11.655273 -10e-6,-4.192679 0.59244,-7.941047 1.77734,-11.245117 1.18489,-3.303997 2.89387,-6.095335 5.12696,-8.374024 2.1647,-2.210239 4.77374,-3.896435 7.82714,-5.058593 3.07615,-1.162059 6.48273,-1.743113 10.21973,-1.743164 2.73434,5.1e-5 5.45732,0.330455 8.16895,0.99121 2.73433,0.660858 5.76493,1.822966 9.09179,3.486329 l 0,8.032226 -0.51269,0 c -2.80278,-2.346963 -5.58273,-4.055946 -8.33985,-5.126953 -2.75719,-1.070918 -5.70804,-1.606399 -8.85254,-1.606445 -2.57489,4.6e-5 -4.89911,0.421595 -6.97265,1.264648 -2.0508,0.820357 -3.88511,2.10779 -5.50293,3.862305 -1.57228,1.709023 -2.80275,3.873735 -3.69141,6.49414 -0.86589,2.597689 -1.29884,5.605498 -1.29883,9.023438 -10e-6,3.577496 0.47851,6.653665 1.43555,9.228516 0.97981,2.574883 2.23306,4.671235 3.75977,6.289062 1.59503,1.686206 3.45213,2.93946 5.57129,3.759766 2.1419,0.797531 4.39776,1.196294 6.76757,1.196289 3.25844,5e-6 6.31182,-0.558263 9.16016,-1.674805 2.84827,-1.116529 5.51428,-2.791332 7.99805,-5.024414 l 0.47851,0 0,7.929688"
         id="path3574"
         inkscape:connector-curvature="0" />
    </g>
    <g
       style="font-size:70px;font-style:normal;font-variant:normal;font-weight:normal;font-stretch:normal;text-align:start;line-height:0%;writing-mode:lr-tb;text-anchor:start;fill:#000000;fill-opacity:1;stroke:none;font-family:Verdana"
       id="text1459"
       transform="matrix(8.5571502,0,0,8.5571502,-4.629817,12.374228)">
      <path
         d="m 368.73154,103.18469 c -2.78,1.27605 -5.82199,2.39258 -9.12598,3.34961 -3.28129,0.93425 -6.45999,1.40137 -9.53613,1.40137 -3.96487,0 -7.59931,-0.54688 -10.90332,-1.64063 -3.30406,-1.09374 -6.11818,-2.73437 -8.44239,-4.92187 -2.34701,-2.21028 -4.15853,-4.967438 -5.43457,-8.271485 -1.27604,-3.326806 -1.91406,-7.211893 -1.91406,-11.655274 0,-8.134732 2.36979,-14.549113 7.10938,-19.243164 4.76235,-4.716747 11.29066,-7.075143 19.58496,-7.075195 2.89384,5.2e-5 5.84469,0.353241 8.85254,1.05957 3.03055,0.683644 6.28901,1.857145 9.77539,3.520508 l 0,8.032226 -0.61524,0 c -0.70643,-0.546835 -1.73181,-1.264608 -3.07617,-2.15332 -1.34444,-0.888629 -2.66606,-1.629189 -3.96484,-2.22168 -1.57231,-0.706335 -3.36104,-1.28739 -5.36621,-1.743164 -1.98246,-0.478469 -4.23832,-0.717727 -6.76758,-0.717773 -5.69664,4.6e-5 -10.20835,1.834354 -13.53516,5.50293 -3.30405,3.64587 -4.95606,8.590526 -4.95605,14.833984 -1e-5,6.585306 1.73176,11.712254 5.19531,15.380859 3.46352,3.645838 8.18031,5.468758 14.15039,5.468748 2.18747,1e-5 4.36357,-0.21646 6.52832,-0.64941 2.18746,-0.43294 4.10152,-0.99121 5.74219,-1.674806 l 0,-12.475586 -13.6377,0 0,-5.947266 20.33692,0 0,21.840818"
         id="path3571"
         inkscape:connector-curvature="0" />
    </g>
    <g
       style="font-size:70px;font-style:normal;font-variant:normal;font-weight:normal;font-stretch:normal;text-align:start;line-height:0%;writing-mode:lr-tb;text-anchor:start;fill:#000000;fill-opacity:1;stroke:none;font-family:Verdana"
       id="text1463"
       transform="matrix(8.5571502,0,0,8.5571502,-4.629817,12.374228)">
      <path
         d="m 441.50064,153.77116 c -5e-5,4.62568 -1.01405,8.81838 -3.04199,12.57813 -2.00525,3.75977 -4.68266,6.67644 -8.03223,8.75 -2.32425,1.43555 -4.92191,2.47233 -7.79297,3.11035 -2.84833,0.63802 -6.60809,0.95703 -11.27929,0.95703 l -12.85157,0 0,-50.89355 12.71485,0 c 4.96742,5e-5 8.90947,0.36463 11.82617,1.09375 2.93942,0.70643 5.42314,1.68624 7.45117,2.93945 3.4635,2.16476 6.16369,5.04724 8.10059,8.64746 1.9368,3.6003 2.90522,7.87275 2.90527,12.81738 m -7.07519,-0.10254 c -5e-5,-3.9876 -0.69503,-7.3486 -2.08497,-10.083 -1.39001,-2.73434 -3.46357,-4.88766 -6.2207,-6.45996 -2.00524,-1.13928 -4.13577,-1.92542 -6.3916,-2.3584 -2.25589,-0.45569 -4.95608,-0.68355 -8.10059,-0.6836 l -6.35742,0 0,39.27246 6.35742,0 c 3.25844,1e-5 6.09536,-0.23925 8.51075,-0.71777 2.43812,-0.47851 4.67119,-1.36718 6.69921,-2.66601 2.52926,-1.61783 4.42054,-3.74836 5.67383,-6.39161 1.276,-2.64321 1.91402,-5.94724 1.91407,-9.91211"
         id="path3568"
         inkscape:connector-curvature="0" />
    </g>
    <g
       style="font-size:70px;font-style:normal;font-variant:normal;font-weight:normal;font-stretch:normal;text-align:start;line-height:0%;writing-mode:lr-tb;text-anchor:start;fill:#000000;fill-opacity:1;stroke:none;font-family:Verdana"
       id="text1467"
       transform="matrix(8.5571502,0,0,8.5571502,-4.629817,12.374228)">
      <path
         d="m 470.57397,277.7778 -7.21191,0 -4.99023,-14.18457 -22.01172,0 -4.99024,14.18457 -6.87011,0 18.52539,-50.89355 9.02343,0 18.52539,50.89355 m -14.2871,-19.99512 -8.9209,-24.98535 -8.95508,24.98535 17.87598,0"
         id="path3565"
         inkscape:connector-curvature="0" />
    </g>
    <g
       style="font-size:70px;font-style:normal;font-variant:normal;font-weight:normal;font-stretch:normal;text-align:start;line-height:0%;writing-mode:lr-tb;text-anchor:start;fill:#000000;fill-opacity:1;stroke:none;font-family:Verdana"
       id="text1471"
       transform="matrix(8.5571502,0,0,8.5571502,-4.629817,12.374228)">
      <path
         d="m 436.19952,373.61111 -33.53027,0 0,-50.89355 33.53027,0 0,6.01562 -26.76269,0 0,13.94532 26.76269,0 0,6.01562 -26.76269,0 0,18.90137 26.76269,0 0,6.01562"
         id="path3562"
         inkscape:connector-curvature="0" />
    </g>
    <g
       style="font-size:70px;font-style:normal;font-variant:normal;font-weight:normal;font-stretch:normal;text-align:start;line-height:0%;writing-mode:lr-tb;text-anchor:start;fill:#000000;fill-opacity:1;stroke:none;font-family:Verdana"
       id="text1475"
       transform="matrix(8.5571502,0,0,8.5571502,-4.629817,12.374228)">
      <path
         d="m 369.37772,443.05554 -6.76758,0 0,-24.91699 -25.39551,0 0,24.91699 -6.76758,0 0,-50.89355 6.76758,0 0,19.96093 25.39551,0 0,-19.96093 6.76758,0 0,50.89355"
         id="path3559"
         inkscape:connector-curvature="0" />
    </g>
    <g
       style="font-size:70px;font-style:normal;font-variant:normal;font-weight:normal;font-stretch:normal;text-align:start;line-height:0%;writing-mode:lr-tb;text-anchor:start;fill:#000000;fill-opacity:1;stroke:none;font-family:Verdana"
       id="text1479"
       transform="matrix(8.5571502,0,0,8.5571502,-4.629817,12.374228)">
      <path
         d="m 169.89636,59.28875 -25.7373,0 0,14.355468 22.11426,0 0,6.015625 -22.11426,0 0,24.506837 -6.76758,0 0,-50.893555 32.50488,0 0,6.015625"
         id="path3556"
         inkscape:connector-curvature="0" />
    </g>
    <path
       style="font-size:70px;font-style:normal;font-variant:normal;font-weight:normal;font-stretch:normal;text-align:start;line-height:0%;writing-mode:lr-tb;text-anchor:start;fill:#000000;fill-opacity:1;stroke:none;font-family:Verdana"
       d="m 511.88984,1080.1856 0,435.345 154.56353,0 c 30.22276,0 55.10867,-2.5627 74.60765,-8.0223 19.69339,-5.4597 37.63776,-14.6742 54.01701,-27.5434 13.84373,-10.7242 24.96913,-24.3398 33.15896,-40.9138 8.18908,-16.5739 12.03311,-35.5823 12.03349,-57.226 -3.8e-4,-30.2228 -8.44053,-55.1812 -25.40404,-74.875 -16.96422,-19.8885 -40.0841,-32.9972 -69.52684,-39.042 l 0,-2.4067 c 17.54853,-8.7742 31.72129,-20.3341 42.25092,-34.7635 10.52896,-14.6237 15.7769,-32.2784 15.77725,-52.9473 -3.5e-4,-18.3285 -3.74967,-33.9998 -10.96385,-47.0644 -7.21486,-13.2587 -18.7748,-23.9718 -34.76342,-32.3567 -14.42934,-7.4091 -29.66618,-12.3673 -45.45986,-14.7076 -15.79421,-2.3394 -39.34863,-3.4759 -71.13131,-3.4763 l -129.15949,0 z m 58.02818,49.471 68.99202,0 c 19.30352,4e-4 35.33702,0.5074 48.40138,1.8719 13.06389,1.1703 24.26171,4.3625 33.42637,9.6268 7.79921,4.485 13.60425,10.4349 17.1143,17.6491 3.50948,7.2149 5.08052,16.2121 5.08081,26.7411 -2.9e-4,12.6745 -1.98359,23.5325 -5.88304,32.8915 -3.70504,9.1647 -10.08947,16.6132 -19.25359,22.4626 -9.16465,5.8499 -18.95857,9.8165 -29.68262,11.766 -10.72451,1.7552 -25.18698,2.6744 -43.32057,2.6741 l -74.87506,0 0,-125.6831 z m 0,174.6193 90.91972,0 c 19.10851,2e-4 35.14201,0.5794 48.40138,2.1393 13.45384,1.3652 24.86893,4.4849 34.2286,9.3594 13.84378,7.2147 23.61541,16.1396 28.88038,26.4737 5.26433,10.3345 7.75459,24.1674 7.75492,41.7161 -3.3e-4,15.4041 -2.41817,27.9557 -7.48751,37.705 -5.06998,9.7494 -13.14801,18.6018 -24.06698,26.2062 -10.33461,7.0196 -23.66058,11.7105 -39.84423,14.4402 -16.18418,2.5349 -36.95864,4.0113 -62.30675,4.0112 l -76.47953,0 0,-162.0511 z"
       id="text1483"
       inkscape:connector-curvature="0" />
    <g
       style="font-size:70px;font-style:normal;font-variant:normal;font-weight:normal;font-stretch:normal;text-align:start;line-height:0%;writing-mode:lr-tb;text-anchor:start;fill:#000000;fill-opacity:1;stroke:none;font-family:Verdana"
       id="text1487"
       transform="matrix(8.5571502,0,0,8.5571502,-4.629817,12.374228)">
      <path
         d="m 65.366209,275 -33.530273,0 0,-50.89355 33.530273,0 0,6.01562 -26.762695,0 0,13.94531 26.762695,0 0,6.01563 -26.762695,0 0,18.90136 26.762695,0 0,6.01563"
         id="path3553"
         inkscape:connector-curvature="0" />
    </g>
    <g
       style="font-size:70px;font-style:normal;font-variant:normal;font-weight:normal;font-stretch:normal;text-align:start;line-height:0%;writing-mode:lr-tb;text-anchor:start;fill:#000000;fill-opacity:1;stroke:none;font-family:Verdana"
       id="text1491"
       transform="matrix(8.5571502,0,0,8.5571502,-4.629817,12.374228)">
      <path
         d="m 101.12955,370.83334 -7.211909,0 -4.990235,-14.18457 -22.011718,0 -4.990235,14.18457 -6.870117,0 18.525391,-50.89355 9.023437,0 18.525386,50.89355 m -14.287105,-19.99511 -8.920898,-24.98536 -8.955078,24.98536 17.875976,0"
         id="path3550"
         inkscape:connector-curvature="0" />
    </g>
    <g
       style="font-size:70px;font-style:normal;font-variant:normal;font-weight:normal;font-stretch:normal;text-align:start;line-height:0%;writing-mode:lr-tb;text-anchor:start;fill:#000000;fill-opacity:1;stroke:none;font-family:Verdana"
       id="text1495"
       transform="matrix(8.5571502,0,0,8.5571502,-4.629817,12.374228)">
      <path
         d="m 173.44509,414.88226 c -5e-5,4.62567 -1.01404,8.81838 -3.04199,12.57813 -2.00525,3.75977 -4.68266,6.67644 -8.03223,8.75 -2.32425,1.43555 -4.92191,2.47233 -7.79297,3.11035 -2.84833,0.63802 -6.60809,0.95703 -11.27929,0.95703 l -12.85157,0 0,-50.89355 12.71485,0 c 4.96742,5e-5 8.90947,0.36463 11.82617,1.09375 2.93942,0.70643 5.42314,1.68624 7.45117,2.93945 3.4635,2.16476 6.16369,5.04724 8.10059,8.64746 1.9368,3.6003 2.90522,7.87275 2.90527,12.81738 m -7.07519,-0.10254 c -5e-5,-3.9876 -0.69503,-7.3486 -2.08497,-10.083 -1.39001,-2.73434 -3.46357,-4.88766 -6.2207,-6.45996 -2.00524,-1.13928 -4.13577,-1.92542 -6.3916,-2.3584 -2.25588,-0.45569 -4.95608,-0.68355 -8.10059,-0.6836 l -6.35742,0 0,39.27246 6.35742,0 c 3.25844,10e-6 6.09536,-0.23925 8.51075,-0.71777 2.43812,-0.47851 4.67119,-1.36718 6.69922,-2.66601 2.52925,-1.61783 4.42053,-3.74836 5.67382,-6.39161 1.276,-2.64321 1.91402,-5.94724 1.91407,-9.91211"
         id="path3547"
         inkscape:connector-curvature="0" />
    </g>
    <g
       transform="matrix(5.9120754,0,0,12.385637,-4.629817,12.374228)"
       style="font-size:48.36251831px;font-style:normal;font-variant:normal;font-weight:normal;font-stretch:normal;text-align:start;line-height:0%;writing-mode:lr-tb;text-anchor:start;fill:#000000;fill-opacity:1;stroke:none;font-family:Verdana"
       id="text1499">
      <path
         d="m 336.55716,324.61709 c -1.92068,0.88162 -4.02237,1.65302 -6.30507,2.31423 -2.26702,0.64546 -4.46317,0.96819 -6.58845,0.96819 -2.7393,0 -5.25031,-0.37783 -7.53303,-1.13349 -2.28275,-0.75567 -4.22701,-1.88916 -5.83279,-3.40049 -1.62153,-1.52707 -2.8731,-3.43197 -3.7547,-5.71472 -0.88161,-2.29846 -1.32242,-4.98264 -1.32242,-8.05254 0,-5.62023 1.63727,-10.05189 4.91182,-13.29497 3.29028,-3.25877 7.80065,-4.88817 13.53112,-4.88821 1.99934,4e-5 4.03805,0.24405 6.11616,0.73205 2.09379,0.47233 4.34503,1.28309 6.75375,2.4323 l 0,5.54941 -0.42507,0 c -0.48806,-0.37781 -1.1965,-0.87371 -2.1253,-1.48772 -0.92887,-0.61395 -1.84196,-1.12559 -2.73928,-1.53494 -1.0863,-0.488 -2.32212,-0.88945 -3.70748,-1.20434 -1.36967,-0.33057 -2.92822,-0.49587 -4.67568,-0.49591 -3.93576,4e-5 -7.05288,1.26735 -9.35134,3.80194 -2.28275,2.51891 -3.42411,5.93514 -3.42411,10.2487 0,4.54974 1.19646,8.09191 3.58941,10.62653 2.39292,2.51888 5.65172,3.77832 9.77641,3.77832 1.5113,0 3.01476,-0.14955 4.51037,-0.44868 1.5113,-0.29911 2.83371,-0.68481 3.96724,-1.15711 l 0,-8.61929 -9.42219,0 0,-4.10893 14.05063,0 0,15.08967"
         id="path3540"
         inkscape:connector-curvature="0" />
      <path
         d="m 377.3158,290.47051 -16.9316,43.92299 -4.08531,0 16.86076,-43.92299 4.15615,0"
         id="path3542"
         inkscape:connector-curvature="0" />
      <path
         d="m 406.19635,296.20884 -17.78172,0 0,9.91809 15.27859,0 0,4.15616 -15.27859,0 0,16.9316 -4.67568,0 0,-35.16201 22.4574,0 0,4.15616"
         id="path3544"
         inkscape:connector-curvature="0" />
    </g>
    <path
       inkscape:connector-curvature="0"
       style="font-size:40px;font-style:normal;font-variant:normal;font-weight:normal;font-stretch:normal;text-align:start;line-height:125%;writing-mode:lr-tb;text-anchor:start;fill:#000000;fill-opacity:1;stroke:none;font-family:Verdana"
       d="m 628.3593,2030.343 c 10.91927,-11.142 20.6686,-19.1643 29.24809,-24.067 8.57931,-4.9023 17.43733,-7.3536 26.57397,-7.3538 13.03613,2e-4 23.84399,4.0671 32.42356,12.2006 8.57931,8.0225 12.86901,18.3289 12.86918,30.9194 -1.7e-4,7.911 -2.17292,16.7133 -6.51815,26.4069 -4.34558,9.6937 -11.30939,20.8358 -20.89152,33.4263 -9.47088,12.5907 -22.28435,25.7941 -38.44034,39.6102 l -35.26479,30.2509 -14.06273,11.5554 0,-255.5678 14.06273,0 0,102.6189 m 0,128.023 c 10.91927,-9.1366 23.287,-21.8386 37.10329,-38.1061 13.81612,-16.3789 22.89697,-29.638 27.24246,-39.7774 4.34532,-10.2506 6.51807,-20.1114 6.51815,-29.5823 -8e-5,-9.025 -2.45136,-16.2674 -7.35375,-21.7272 -4.90265,-5.5709 -11.19798,-8.3564 -18.88598,-8.3566 -12.81347,2e-4 -27.6882,7.744 -44.62417,23.2314 l 0,114.3182"
       id="path1527"
       sodipodi:nodetypes="csscsscccccccccsssscc" />
    <path
       inkscape:connector-curvature="0"
       style="font-size:40px;font-style:normal;font-variant:normal;font-weight:normal;font-stretch:normal;text-align:start;line-height:125%;writing-mode:lr-tb;text-anchor:start;fill:#000000;fill-opacity:1;stroke:none;font-family:Verdana"
       d="m 855.26503,2849.7247 c 10.91926,-11.142 20.6686,-19.1643 29.24808,-24.067 8.57931,-4.9023 17.43733,-7.3536 26.57397,-7.3538 13.03614,2e-4 23.84399,4.0671 32.42356,12.2006 8.57931,8.0225 12.86901,18.3289 12.86918,30.9194 -1.7e-4,7.911 -2.17291,16.7133 -6.51815,26.4069 -4.34558,9.6937 -11.30939,20.8358 -20.89151,33.4263 -9.47088,12.5907 -22.28436,25.7941 -38.44035,39.6102 l -35.26478,30.2509 -14.06276,11.5554 0,-255.5678 14.06276,0 0,102.6189 m 0,128.023 c 10.91926,-9.1366 23.287,-21.8386 37.10329,-38.1061 13.81612,-16.3789 22.89696,-29.638 27.24246,-39.7774 4.34532,-10.2506 6.51806,-20.1114 6.51815,-29.5823 -9e-5,-9.025 -2.45137,-16.2674 -7.35376,-21.7272 -4.90265,-5.5709 -11.19797,-8.3564 -18.88597,-8.3565 -12.81348,1e-4 -27.6882,7.7439 -44.62417,23.2313 l 0,114.3182"
       id="path1529"
       sodipodi:nodetypes="csscsscccccccccsssscc" />
    <path
       inkscape:connector-curvature="0"
       style="font-size:40px;font-style:normal;font-variant:normal;font-weight:normal;font-stretch:normal;text-align:start;line-height:125%;writing-mode:lr-tb;text-anchor:start;fill:#000000;fill-opacity:1;stroke:none;font-family:Verdana"
       d="m 1523.3763,3450.6046 c 10.9192,-11.1419 20.6686,-19.1643 29.248,-24.067 8.5793,-4.9023 17.4374,-7.3536 26.574,-7.3538 13.0361,2e-4 23.844,4.0671 32.4236,12.2006 8.5793,8.0225 12.869,18.3289 12.8691,30.9194 -10e-5,7.911 -2.1729,16.7133 -6.5181,26.4069 -4.3456,9.6937 -11.3094,20.8358 -20.8915,33.4263 -9.4709,12.5907 -22.2844,25.7941 -38.4404,39.6102 l -35.2647,30.2509 -14.0628,11.5554 0,-255.5678 14.0628,0 0,102.6189 m 0,128.023 c 10.9192,-9.1366 23.287,-21.8385 37.1032,-38.106 13.8162,-16.3789 22.897,-29.6381 27.2425,-39.7774 4.3453,-10.2507 6.5181,-20.1115 6.5182,-29.5824 -10e-5,-9.025 -2.4514,-16.2674 -7.3538,-21.7272 -4.9027,-5.5708 -11.198,-8.3564 -18.886,-8.3565 -12.8135,10e-5 -27.6882,7.7439 -44.6241,23.2314 l 0,114.3181"
       id="path1531"
       sodipodi:nodetypes="csscsscccccccccsssscc" />
    <path
       inkscape:connector-curvature="0"
       style="font-size:40px;font-style:normal;font-variant:normal;font-weight:normal;font-stretch:normal;text-align:start;line-height:125%;writing-mode:lr-tb;text-anchor:start;fill:#000000;fill-opacity:1;stroke:none;font-family:Verdana"
       d="m 2029.8585,3727.9338 c 6.1389,-11.142 11.6201,-19.1643 16.4436,-24.067 4.8234,-4.9023 9.8035,-7.3536 14.9402,-7.3538 7.329,2e-4 13.4053,4.0671 18.2288,12.2006 4.8234,8.0225 7.2351,18.3289 7.2352,30.9194 -10e-5,7.911 -1.2216,16.7133 -3.6645,26.4069 -2.4432,9.6937 -6.3583,20.8358 -11.7455,33.4263 -5.3246,12.5907 -12.5285,25.7941 -21.6116,39.6102 l -19.8262,30.2509 -7.9062,11.5554 0,-255.5678 7.9062,0 0,102.6189 m 0,128.023 c 6.1389,-9.1366 13.0922,-21.8386 20.8598,-38.106 7.7676,-16.3789 12.873,-29.6381 15.3161,-39.7774 2.4429,-10.2507 3.6645,-20.1115 3.6646,-29.5824 -1e-4,-9.025 -1.3783,-16.2674 -4.1344,-21.7272 -2.7564,-5.5708 -6.2956,-8.3564 -10.6179,-8.3565 -7.2039,1e-4 -15.5666,7.7439 -25.0882,23.2313 l 0,114.3182"
       id="path1533"
       sodipodi:nodetypes="csscsscccccccccsssscc" />
    <path
       inkscape:connector-curvature="0"
       style="font-size:40px;font-style:normal;font-variant:normal;font-weight:normal;font-stretch:normal;text-align:start;line-height:125%;writing-mode:lr-tb;text-anchor:start;fill:#000000;fill-opacity:1;stroke:none;font-family:Verdana"
       d="m 2510.2218,3778.6651 -19.8717,14.2611 0,52.3976 -8.5448,0 0,-46.1483 -35.5703,25.6379 0,54.1601 -8.5448,0 0,-47.9108 -19.8717,14.2611 0,-26.9199 19.8717,-14.2611 0,-79.1572 -19.8717,14.2611 0,-26.9199 19.8717,-14.2611 0,-52.3975 8.5448,0 0,46.1482 35.5703,-25.6379 0,-55.7625 8.5448,0 0,49.5132 19.8717,-14.261 0,26.9198 -19.8717,14.2611 0,79.1572 19.8717,-14.2611 0,26.9199 m -28.4165,-6.4095 0,-79.1572 -35.5703,25.6379 0,79.1572 35.5703,-25.6379"
       id="path1535" />
    <g
       style="font-size:40px;font-style:normal;font-variant:normal;font-weight:normal;font-stretch:normal;text-align:start;line-height:125%;writing-mode:lr-tb;text-anchor:start;fill:#000000;fill-opacity:1;stroke:none;font-family:Verdana"
       id="text1404"
       transform="matrix(8.5571502,0,0,8.5571502,-4.629817,12.374228)">
      <path
         d="m 257.08432,136.92473 -3.65234,0 0,-2.32422 c -0.32554,0.22136 -0.76825,0.53386 -1.32813,0.9375 -0.54689,0.39063 -1.08074,0.70313 -1.60156,0.9375 -0.61199,0.29948 -1.31512,0.54687 -2.10938,0.74219 -0.79428,0.20833 -1.72527,0.3125 -2.79296,0.3125 -1.96616,0 -3.63282,-0.65104 -5,-1.95313 -1.3672,-1.30208 -2.05079,-2.96223 -2.05079,-4.98047 0,-1.65363 0.35156,-2.98827 1.05469,-4.0039 0.71614,-1.02864 1.73177,-1.83593 3.04688,-2.42188 1.32811,-0.58592 2.92316,-0.98306 4.78515,-1.1914 1.86197,-0.20832 3.86066,-0.36457 5.9961,-0.46875 l 0,-0.56641 c -2e-5,-0.83332 -0.14976,-1.52342 -0.44922,-2.07031 -0.28648,-0.54686 -0.70314,-0.97655 -1.25,-1.28907 -0.52085,-0.29946 -1.14585,-0.50128 -1.875,-0.60546 -0.72918,-0.10415 -1.4909,-0.15624 -2.28516,-0.15625 -0.96355,10e-6 -2.03777,0.13022 -3.22265,0.39062 -1.18491,0.24742 -2.40886,0.612 -3.67188,1.09375 l -0.19531,0 0,-3.73047 c 0.71614,-0.19529 1.75129,-0.41013 3.10547,-0.64453 1.35415,-0.23435 2.68879,-0.35154 4.0039,-0.35156 1.53645,2e-5 2.87108,0.13023 4.00391,0.39062 1.14582,0.24742 2.1354,0.67711 2.96875,1.28907 0.82029,0.59897 1.44529,1.37371 1.875,2.32421 0.42967,0.95054 0.64451,2.12893 0.64453,3.53516 l 0,14.80469 m -3.65234,-5.3711 0,-6.07421 c -1.11981,0.0651 -2.44142,0.16277 -3.96485,0.29296 -1.51043,0.13022 -2.70834,0.31903 -3.59375,0.56641 -1.05469,0.29949 -1.90756,0.76824 -2.55859,1.40625 -0.65105,0.62501 -0.97657,1.49089 -0.97656,2.59766 -1e-5,1.25 0.37759,2.19401 1.13281,2.83203 0.7552,0.625 1.90754,0.9375 3.45703,0.9375 1.28905,0 2.46744,-0.24739 3.53516,-0.74219 1.06769,-0.50781 2.05727,-1.11328 2.96875,-1.81641"
         id="path3537"
         inkscape:connector-curvature="0" />
    </g>
    <g
       style="font-size:40px;font-style:normal;font-variant:normal;font-weight:normal;font-stretch:normal;text-align:start;line-height:125%;writing-mode:lr-tb;text-anchor:start;fill:#000000;fill-opacity:1;stroke:none;font-family:Verdana"
       id="text1408"
       transform="matrix(8.5571502,0,0,8.5571502,-4.629817,12.374228)">
      <path
         d="m 321.29968,141.50665 -16.07422,0 c 0,1.34116 0.20182,2.51303 0.60547,3.51563 0.40364,0.98959 0.95703,1.80339 1.66016,2.4414 0.67707,0.62501 1.47785,1.09376 2.40234,1.40625 0.93749,0.31251 1.96614,0.46876 3.08594,0.46875 1.48436,1e-5 2.97524,-0.29296 4.47266,-0.8789 1.51039,-0.59896 2.58461,-1.18489 3.22265,-1.75781 l 0.19532,0 0,4.0039 c -1.237,0.52084 -2.50002,0.95703 -3.78907,1.3086 -1.28908,0.35156 -2.64324,0.52734 -4.0625,0.52734 -3.6198,0 -6.44532,-0.97656 -8.47656,-2.92969 -2.03125,-1.96614 -3.04688,-4.7526 -3.04687,-8.35937 -1e-5,-3.5677 0.97004,-6.39973 2.91015,-8.4961 1.95312,-2.09633 4.51822,-3.14451 7.69531,-3.14453 2.9427,2e-5 5.20832,0.8594 6.79688,2.57813 1.60154,1.71876 2.40232,4.16017 2.40234,7.32422 l 0,1.99218 m -3.57422,-2.8125 c -0.013,-1.92707 -0.50132,-3.41795 -1.46484,-4.47265 -0.95054,-1.05467 -2.40236,-1.58202 -4.35547,-1.58203 -1.96615,1e-5 -3.53516,0.57944 -4.70703,1.73828 -1.15886,1.15887 -1.81641,2.59767 -1.97266,4.3164 l 12.5,0"
         id="path3534"
         inkscape:connector-curvature="0" />
    </g>
    <g
       style="font-size:40px;font-style:normal;font-variant:normal;font-weight:normal;font-stretch:normal;text-align:start;line-height:125%;writing-mode:lr-tb;text-anchor:start;fill:#000000;fill-opacity:1;stroke:none;font-family:Verdana"
       id="text1412"
       transform="matrix(8.5571502,0,0,8.5571502,13.703249,6.263206)">
      <path
         d="m 364.91104,200.2383 -3.67187,0 0,-12.42188 c -2e-5,-1.00259 -0.0586,-1.94009 -0.17578,-2.8125 -0.11721,-0.8854 -0.33205,-1.5755 -0.64454,-2.07031 -0.32553,-0.54686 -0.79428,-0.9505 -1.40625,-1.21094 -0.61199,-0.27342 -1.40626,-0.41014 -2.38281,-0.41015 -1.00262,1e-5 -2.05079,0.24741 -3.14453,0.74218 -1.09376,0.49481 -2.14194,1.12632 -3.14453,1.89453 l 0,16.28907 -3.67188,0 0,-30.39063 3.67188,0 0,10.9961 c 1.14582,-0.95051 2.33072,-1.69269 3.55469,-2.22657 1.22394,-0.53383 2.48045,-0.80076 3.76953,-0.80078 2.35675,2e-5 4.15362,0.70966 5.39062,2.12891 1.23696,1.41929 1.85545,3.46356 1.85547,6.13281 l 0,14.16016"
         id="path3531"
         inkscape:connector-curvature="0" />
    </g>
    <g
       style="font-size:40px;font-style:normal;font-variant:normal;font-weight:normal;font-stretch:normal;text-align:start;line-height:125%;writing-mode:lr-tb;text-anchor:start;fill:#000000;fill-opacity:1;stroke:none;font-family:Verdana"
       id="text1416"
       transform="matrix(8.5571502,0,0,8.5571502,-4.629817,12.374228)">
      <path
         d="m 374.66696,238.44186 -0.19531,0 c -0.40366,-0.11716 -0.931,-0.23434 -1.58203,-0.35156 -0.65106,-0.13018 -1.22397,-0.19528 -1.71875,-0.19531 -1.57553,3e-5 -2.72137,0.35159 -3.4375,1.05469 -0.70313,0.69013 -1.0547,1.94664 -1.05469,3.76953 l 0,0.74219 6.62109,0 0,3.08593 -6.5039,0 0,18.73047 -3.67188,0 0,-18.73047 -2.48047,0 0,-3.08593 2.48047,0 0,-0.72266 c 0,-2.59112 0.64453,-4.5768 1.9336,-5.95703 1.28905,-1.3932 3.15103,-2.08982 5.58593,-2.08985 0.8203,3e-5 1.55598,0.0391 2.20704,0.11719 0.66404,0.0782 1.26951,0.1693 1.8164,0.27344 l 0,3.35937"
         id="path3528"
         inkscape:connector-curvature="0" />
    </g>
    <g
       style="font-size:40px;font-style:normal;font-variant:normal;font-weight:normal;font-stretch:normal;text-align:start;line-height:125%;writing-mode:lr-tb;text-anchor:start;fill:#000000;fill-opacity:1;stroke:none;font-family:Verdana"
       id="text1420"
       transform="matrix(8.5571502,0,0,8.5571502,-4.629817,12.374228)">
      <path
         d="m 363.68503,320.78525 c -1.22398,0.58594 -2.38934,1.04166 -3.4961,1.36719 -1.09376,0.32552 -2.25912,0.48828 -3.49609,0.48828 -1.57553,0 -3.02084,-0.22787 -4.33594,-0.6836 -1.31511,-0.46875 -2.44141,-1.17187 -3.3789,-2.10937 -0.95053,-0.9375 -1.6862,-2.12239 -2.20703,-3.55469 -0.52084,-1.43228 -0.78126,-3.10546 -0.78125,-5.01953 -10e-6,-3.56769 0.97656,-6.36717 2.92968,-8.39844 1.96614,-2.03123 4.55729,-3.04685 7.77344,-3.04687 1.24999,2e-5 2.47394,0.1758 3.67188,0.52734 1.21092,0.35158 2.31769,0.78127 3.32031,1.28906 l 0,4.08203 -0.19531,0 c -1.11981,-0.87237 -2.27867,-1.54295 -3.47657,-2.01171 -1.18491,-0.46874 -2.34376,-0.70311 -3.47656,-0.70313 -2.08334,2e-5 -3.73048,0.70314 -4.94141,2.10938 -1.19792,1.39324 -1.79688,3.44402 -1.79687,6.15234 -1e-5,2.63022 0.58593,4.65495 1.75781,6.07422 1.18489,1.40625 2.84504,2.10938 4.98047,2.10937 0.74217,1e-5 1.49738,-0.0976 2.26563,-0.29297 0.76821,-0.19531 1.45831,-0.44921 2.07031,-0.76171 0.53383,-0.27344 1.03514,-0.5599 1.5039,-0.85938 0.46874,-0.31249 0.83983,-0.57942 1.11329,-0.80078 l 0.19531,0 0,4.04297"
         id="path3525"
         inkscape:connector-curvature="0" />
    </g>
    <g
       style="font-size:40px;font-style:normal;font-variant:normal;font-weight:normal;font-stretch:normal;text-align:start;line-height:125%;writing-mode:lr-tb;text-anchor:start;fill:#000000;fill-opacity:1;stroke:none;font-family:Verdana"
       id="text1424"
       transform="matrix(8.5571502,0,0,8.5571502,-4.629817,12.374228)">
      <path
         d="m 319.86478,363.95493 c -2e-5,3.69791 -0.83987,6.41275 -2.51953,8.14453 -1.67971,1.73176 -4.26434,2.59764 -7.75391,2.59765 -1.15886,-1e-5 -2.29168,-0.0846 -3.39844,-0.2539 -1.09375,-0.15626 -2.17448,-0.38413 -3.24219,-0.6836 l 0,-3.75 0.19532,0 c 0.59895,0.23437 1.54947,0.52083 2.85156,0.85938 1.30207,0.35156 2.60416,0.52734 3.90625,0.52734 1.24999,0 2.28514,-0.14974 3.10547,-0.44922 0.8203,-0.29948 1.45832,-0.71615 1.91406,-1.25 0.45571,-0.50781 0.78123,-1.11979 0.97656,-1.83593 0.1953,-0.71615 0.29295,-1.51693 0.29297,-2.40235 l 0,-1.99219 c -1.10679,0.88542 -2.16798,1.54948 -3.18359,1.99219 -1.00262,0.42969 -2.28517,0.64453 -3.84766,0.64453 -2.60417,0 -4.67448,-0.9375 -6.21094,-2.8125 -1.52344,-1.88801 -2.28515,-4.54426 -2.28515,-7.96875 0,-1.87498 0.26041,-3.48957 0.78125,-4.84375 0.53385,-1.36717 1.2565,-2.54555 2.16797,-3.53515 0.84634,-0.92446 1.87499,-1.64061 3.08593,-2.14844 1.21093,-0.52081 2.41536,-0.78123 3.61329,-0.78125 1.263,2e-5 2.31769,0.13023 3.16406,0.39062 0.85936,0.24742 1.7643,0.63154 2.71484,1.15235 l 0.23438,-0.9375 3.4375,0 0,19.33594 m -3.67188,-3.51563 0,-11.89453 c -0.97658,-0.44269 -1.88803,-0.75519 -2.73437,-0.9375 -0.83335,-0.19529 -1.66668,-0.29295 -2.5,-0.29297 -2.01824,2e-5 -3.60678,0.6771 -4.76563,2.03125 -1.15886,1.35418 -1.73829,3.32033 -1.73828,5.89844 -10e-6,2.44792 0.42968,4.30339 1.28906,5.5664 0.85937,1.26303 2.28515,1.89454 4.27735,1.89454 1.06769,0 2.1354,-0.20182 3.20312,-0.60547 1.08072,-0.41667 2.0703,-0.97005 2.96875,-1.66016"
         id="path3522"
         inkscape:connector-curvature="0" />
    </g>
    <g
       style="font-size:40px;font-style:normal;font-variant:normal;font-weight:normal;font-stretch:normal;text-align:start;line-height:125%;writing-mode:lr-tb;text-anchor:start;fill:#000000;fill-opacity:1;stroke:none;font-family:Verdana"
       id="text1428"
       transform="matrix(8.5571502,0,0,8.5571502,-4.629817,12.374228)">
      <path
         d="m 196.12109,152.33919 -3.67187,0 0,-2.28516 c -1.05471,0.91146 -2.15496,1.6211 -3.30078,2.12891 -1.14585,0.50781 -2.38934,0.76172 -3.73047,0.76172 -2.60418,0 -4.67449,-1.00261 -6.21094,-3.00782 -1.52344,-2.0052 -2.28516,-4.78515 -2.28516,-8.33984 0,-1.84895 0.26042,-3.49608 0.78125,-4.94141 0.53386,-1.44529 1.25,-2.67576 2.14844,-3.6914 0.88541,-0.98957 1.91406,-1.74477 3.08594,-2.26563 1.18489,-0.52081 2.40884,-0.78122 3.67187,-0.78125 1.14583,3e-5 2.16145,0.12372 3.04688,0.3711 0.8854,0.23439 1.81639,0.60549 2.79297,1.11328 l 0,-9.45313 3.67187,0 0,30.39063 m -3.67187,-5.3711 0,-12.51953 c -0.9896,-0.44269 -1.87502,-0.74868 -2.65625,-0.91797 -0.78127,-0.16925 -1.63413,-0.25388 -2.5586,-0.2539 -2.0573,2e-5 -3.65886,0.71616 -4.80468,2.14844 -1.14584,1.4323 -1.71876,3.46355 -1.71875,6.09375 -1e-5,2.59115 0.4427,4.5638 1.32812,5.91796 0.88541,1.34115 2.30468,2.01173 4.25781,2.01172 1.04166,1e-5 2.09635,-0.22786 3.16407,-0.68359 1.06769,-0.46875 2.06378,-1.0677 2.98828,-1.79688"
         id="path3519"
         inkscape:connector-curvature="0" />
    </g>
    <g
       style="font-size:40px;font-style:normal;font-variant:normal;font-weight:normal;font-stretch:normal;text-align:start;line-height:125%;writing-mode:lr-tb;text-anchor:start;fill:#000000;fill-opacity:1;stroke:none;font-family:Verdana"
       id="text1432"
       transform="matrix(8.5571502,0,0,8.5571502,-4.629817,12.374228)">
      <path
         d="m 153.89111,197.98125 c -2e-5,3.69791 -0.83986,6.41275 -2.51953,8.14453 -1.6797,1.73176 -4.26434,2.59765 -7.7539,2.59765 -1.15887,0 -2.29168,-0.0846 -3.39844,-0.2539 -1.09376,-0.15626 -2.17449,-0.38412 -3.24219,-0.6836 l 0,-3.75 0.19531,0 c 0.59896,0.23438 1.54948,0.52083 2.85157,0.85938 1.30207,0.35156 2.60415,0.52734 3.90625,0.52734 1.24998,0 2.28514,-0.14974 3.10546,-0.44922 0.8203,-0.29948 1.45832,-0.71615 1.91407,-1.25 0.45571,-0.50781 0.78123,-1.11979 0.97656,-1.83593 0.19529,-0.71615 0.29295,-1.51693 0.29297,-2.40235 l 0,-1.99218 c -1.10679,0.88541 -2.16799,1.54948 -3.1836,1.99218 -1.00261,0.42969 -2.28516,0.64453 -3.84765,0.64453 -2.60418,0 -4.67449,-0.93749 -6.21094,-2.8125 -1.52344,-1.88801 -2.28516,-4.54426 -2.28516,-7.96875 0,-1.87498 0.26042,-3.48956 0.78125,-4.84375 0.53386,-1.36717 1.25651,-2.54555 2.16797,-3.53515 0.84635,-0.92446 1.875,-1.64061 3.08594,-2.14844 1.21093,-0.52081 2.41535,-0.78123 3.61328,-0.78125 1.26301,2e-5 2.3177,0.13023 3.16406,0.39063 0.85936,0.24741 1.76431,0.63153 2.71485,1.15234 l 0.23437,-0.9375 3.4375,0 0,19.33594 m -3.67187,-3.51563 0,-11.89453 c -0.97658,-0.44269 -1.88804,-0.75519 -2.73438,-0.9375 -0.83334,-0.19529 -1.66668,-0.29295 -2.5,-0.29297 -2.01824,2e-5 -3.60678,0.6771 -4.76562,2.03125 -1.15886,1.35418 -1.73829,3.32033 -1.73828,5.89844 -1e-5,2.44792 0.42968,4.30339 1.28906,5.56641 0.85937,1.26302 2.28515,1.89453 4.27734,1.89453 1.0677,0 2.13541,-0.20182 3.20313,-0.60547 1.08071,-0.41666 2.07029,-0.97005 2.96875,-1.66016"
         id="path3516"
         inkscape:connector-curvature="0" />
    </g>
    <g
       style="font-size:40px;font-style:normal;font-variant:normal;font-weight:normal;font-stretch:normal;text-align:start;line-height:125%;writing-mode:lr-tb;text-anchor:start;fill:#000000;fill-opacity:1;stroke:none;font-family:Verdana"
       id="text1436"
       transform="matrix(8.5571502,0,0,8.5571502,-4.629817,12.374228)">
      <path
         d="m 137.59724,260.96637 c -1.22398,0.58594 -2.38934,1.04167 -3.4961,1.36719 -1.09376,0.32552 -2.25913,0.48828 -3.49609,0.48828 -1.57553,0 -3.02084,-0.22787 -4.33594,-0.6836 -1.31511,-0.46874 -2.44141,-1.17187 -3.3789,-2.10937 -0.95053,-0.9375 -1.68621,-2.12239 -2.20704,-3.55469 -0.52083,-1.43228 -0.78125,-3.10546 -0.78125,-5.01953 0,-3.56769 0.97656,-6.36717 2.92969,-8.39844 1.96614,-2.03123 4.55728,-3.04685 7.77344,-3.04687 1.24999,2e-5 2.47394,0.1758 3.67187,0.52734 1.21092,0.35159 2.31769,0.78127 3.32032,1.28906 l 0,4.08204 -0.19532,0 c -1.11981,-0.87238 -2.27866,-1.54295 -3.47656,-2.01172 -1.18491,-0.46873 -2.34376,-0.70311 -3.47656,-0.70313 -2.08334,2e-5 -3.73048,0.70315 -4.94141,2.10938 -1.19792,1.39324 -1.79688,3.44402 -1.79687,6.15234 -1e-5,2.63022 0.58593,4.65496 1.75781,6.07422 1.18489,1.40625 2.84504,2.10938 4.98047,2.10937 0.74217,1e-5 1.49738,-0.0976 2.26562,-0.29296 0.76822,-0.19531 1.45832,-0.44922 2.07032,-0.76172 0.53383,-0.27344 1.03513,-0.55989 1.5039,-0.85938 0.46873,-0.31249 0.83983,-0.57942 1.11328,-0.80078 l 0.19532,0 0,4.04297"
         id="path3513"
         inkscape:connector-curvature="0" />
    </g>
    <g
       style="font-size:40px;font-style:normal;font-variant:normal;font-weight:normal;font-stretch:normal;text-align:start;line-height:125%;writing-mode:lr-tb;text-anchor:start;fill:#000000;fill-opacity:1;stroke:none;font-family:Verdana"
       id="text1440"
       transform="matrix(8.5571502,0,0,8.5571502,-4.629817,12.374228)">
      <path
         d="m 149.89825,300.31573 -0.19531,0 c -0.40366,-0.11716 -0.931,-0.23434 -1.58203,-0.35156 -0.65105,-0.13018 -1.22397,-0.19528 -1.71875,-0.19531 -1.57553,3e-5 -2.72136,0.35159 -3.4375,1.05469 -0.70313,0.69013 -1.05469,1.94664 -1.05469,3.76953 l 0,0.74219 6.6211,0 0,3.08593 -6.50391,0 0,18.73047 -3.67187,0 0,-18.73047 -2.48047,0 0,-3.08593 2.48047,0 0,-0.72266 c -1e-5,-2.59112 0.64452,-4.5768 1.93359,-5.95703 1.28905,-1.3932 3.15103,-2.08981 5.58594,-2.08985 0.8203,4e-5 1.55597,0.0391 2.20703,0.11719 0.66405,0.0782 1.26951,0.1693 1.8164,0.27344 l 0,3.35937"
         id="path3510"
         inkscape:connector-curvature="0" />
    </g>
    <g
       style="font-size:40px;font-style:normal;font-variant:normal;font-weight:normal;font-stretch:normal;text-align:start;line-height:125%;writing-mode:lr-tb;text-anchor:start;fill:#000000;fill-opacity:1;stroke:none;font-family:Verdana"
       id="text1444"
       transform="matrix(8.5571502,0,0,8.5571502,-4.629817,12.374228)">
      <path
         d="m 193.69662,363.21793 c -2e-5,1.82292 -0.26043,3.46355 -0.78125,4.92187 -0.50783,1.45834 -1.19793,2.6823 -2.07031,3.67188 -0.9245,1.02864 -1.94012,1.80338 -3.04687,2.32421 -1.10679,0.50782 -2.32424,0.76172 -3.65235,0.76172 -1.23699,0 -2.31772,-0.14974 -3.24218,-0.44922 -0.92449,-0.28645 -1.83595,-0.67708 -2.73438,-1.17187 l -0.23437,1.01562 -3.4375,0 0,-30.39062 3.67187,0 0,10.85937 c 1.02864,-0.84633 2.12239,-1.53643 3.28125,-2.07031 1.15884,-0.54685 2.46093,-0.82029 3.90625,-0.82031 2.57811,2e-5 4.60936,0.9896 6.09375,2.96875 1.49737,1.97918 2.24607,4.77215 2.24609,8.37891 m -3.78906,0.0976 c -2e-5,-2.60415 -0.4297,-4.57681 -1.28906,-5.91797 -0.85939,-1.35414 -2.24611,-2.03123 -4.16016,-2.03125 -1.06772,2e-5 -2.14845,0.2344 -3.24218,0.70313 -1.09376,0.45575 -2.10939,1.04819 -3.04688,1.77734 l 0,12.5 c 1.04166,0.46876 1.93359,0.79428 2.67578,0.97656 0.7552,0.1823 1.60806,0.27344 2.5586,0.27344 2.03123,0 3.61977,-0.66406 4.76562,-1.99219 1.15884,-1.34114 1.73826,-3.43749 1.73828,-6.28906"
         id="path3507"
         inkscape:connector-curvature="0" />
    </g>
    <g
       transform="matrix(5.8382692,0,0,12.542213,-4.629817,12.374228)"
       style="font-size:27.29071426px;font-style:normal;font-variant:normal;font-weight:normal;font-stretch:normal;text-align:start;line-height:125%;writing-mode:lr-tb;text-anchor:start;fill:#000000;fill-opacity:1;stroke:none;font-family:Verdana"
       id="text1448">
      <path
         d="m 349.06063,258.90585 -10.96693,0 c 0,0.91503 0.1377,1.71456 0.4131,2.3986 0.27539,0.67516 0.65294,1.23039 1.13267,1.66569 0.46194,0.42642 1.00829,0.74623 1.63904,0.95944 0.63962,0.21321 1.34143,0.31981 2.10543,0.31981 1.01274,0 2.02992,-0.19988 3.05155,-0.59965 1.0305,-0.40864 1.7634,-0.80841 2.19872,-1.1993 l 0.13325,0 0,2.73174 c -0.84396,0.35535 -1.70568,0.65295 -2.58515,0.89281 -0.8795,0.23986 -1.8034,0.35979 -2.77171,0.35979 -2.46968,0 -4.39744,-0.66627 -5.78329,-1.99883 -1.38586,-1.34143 -2.07879,-3.24254 -2.07879,-5.70333 0,-2.43413 0.66184,-4.36633 1.98551,-5.79661 1.33255,-1.43026 3.08264,-2.1454 5.25026,-2.14542 2.00771,2e-5 3.55347,0.58634 4.63729,1.75898 1.09268,1.17266 1.63903,2.83835 1.63905,4.99707 l 0,1.35921 m -2.43858,-1.91888 c -0.009,-1.31478 -0.34203,-2.33196 -0.99941,-3.05155 -0.64852,-0.71956 -1.63906,-1.07935 -2.9716,-1.07937 -1.34145,2e-5 -2.41193,0.39534 -3.21146,1.18598 -0.79065,0.79066 -1.23928,1.7723 -1.34588,2.94494 l 8.52835,0"
         id="path3500"
         inkscape:connector-curvature="0" />
      <path
         d="m 371.44754,245.35377 -9.55442,24.78551 -2.30531,0 9.51443,-24.78551 2.3453,0"
         id="path3502"
         inkscape:connector-curvature="0" />
      <path
         d="m 386.94515,266.08832 -2.50521,0 0,-1.55909 c -0.71959,0.62186 -1.47026,1.10602 -2.25201,1.45248 -0.78178,0.34647 -1.63017,0.5197 -2.54518,0.5197 -1.77675,0 -3.18925,-0.68404 -4.23752,-2.05213 -1.0394,-1.36809 -1.55909,-3.26476 -1.55909,-5.69001 0,-1.26148 0.17767,-2.38526 0.53302,-3.37136 0.36423,-0.98608 0.85283,-1.82559 1.46581,-2.51853 0.60409,-0.67515 1.3059,-1.1904 2.10543,-1.54576 0.80841,-0.35534 1.64348,-0.53301 2.50521,-0.53303 0.78175,2e-5 1.47468,0.0844 2.07878,0.25319 0.60408,0.15992 1.23927,0.41311 1.90555,0.75955 l 0,-6.44956 2.50521,0 0,20.73455 m -2.50521,-3.66453 0,-8.54167 c -0.67517,-0.30203 -1.27926,-0.5108 -1.81227,-0.6263 -0.53303,-0.11548 -1.11491,-0.17322 -1.74565,-0.17323 -1.40363,1e-5 -2.49632,0.48861 -3.27808,1.46581 -0.78177,0.97721 -1.17265,2.36307 -1.17265,4.15757 0,1.76786 0.30204,3.11374 0.90614,4.03764 0.60409,0.91502 1.57241,1.37253 2.90497,1.37253 0.71069,0 1.43026,-0.15547 2.15874,-0.4664 0.72845,-0.31981 1.40805,-0.72846 2.0388,-1.22595"
         id="path3504"
         inkscape:connector-curvature="0" />
    </g>
    <path
       inkscape:connector-curvature="0"
       style="font-size:40px;font-style:normal;font-variant:normal;font-weight:normal;font-stretch:normal;text-align:start;line-height:125%;writing-mode:lr-tb;text-anchor:start;fill:#000000;fill-opacity:1;stroke:none;font-family:Verdana"
       d="m 2055.6809,3150.8311 c 3.3504,-6.1958 6.3418,-10.6568 8.9743,-13.3831 2.6323,-2.726 5.3504,-4.0892 8.1538,-4.0892 3.9998,0 7.3161,2.2615 9.9486,6.7844 2.6324,4.4611 3.9486,10.1923 3.9487,17.1935 -10e-5,4.3992 -0.6666,9.2939 -2,14.6842 -1.3334,5.3905 -3.4701,11.5863 -6.4102,18.5876 -2.906,7.0014 -6.8376,14.3435 -11.7948,22.0263 l -10.8204,16.8218 -4.315,6.4256 0,-142.115 4.315,0 0,57.0639 m 0,71.1904 c 3.3504,-5.0806 7.1452,-12.1438 11.3845,-21.1898 4.2392,-9.1079 7.0255,-16.481 8.3589,-22.1192 1.3333,-5.7002 2,-11.1835 2,-16.45 0,-5.0187 -0.7522,-9.0459 -2.2564,-12.082 -1.5043,-3.0978 -3.4359,-4.6468 -5.7948,-4.6469 -3.9317,10e-5 -8.4957,4.3062 -13.6922,12.9184 l 0,63.5695"
       id="path1454"
       sodipodi:nodetypes="csscsscccccccccsssscc" />
    <path
       inkscape:connector-curvature="0"
       style="font-size:40px;font-style:normal;font-variant:normal;font-weight:normal;font-stretch:normal;text-align:start;line-height:125%;writing-mode:lr-tb;text-anchor:start;fill:#000000;fill-opacity:1;stroke:none;font-family:Verdana"
       d="m 3279.1802,2098.7446 -12.6425,7.567 0,27.8025 -5.4363,0 0,-24.4866 -22.6301,13.6037 0,28.7379 -5.4363,0 0,-25.4219 -12.6425,7.5669 0,-14.2838 12.6425,-7.567 0,-42.0015 -12.6425,7.5671 0,-14.2839 12.6425,-7.5671 0,-27.8026 5.4363,0 0,24.4868 22.6301,-13.6038 0,-29.588 5.4363,0 0,26.272 12.6425,-7.567 0,14.2839 -12.6425,7.5671 0,42.0015 12.6425,-7.5671 0,14.2839 m -18.0788,-3.4009 0,-42.0014 -22.6301,13.6035 0,42.0015 22.6301,-13.6036"
       id="path1456" />
    <path
       inkscape:connector-curvature="0"
       style="font-size:40px;font-style:normal;font-variant:normal;font-weight:normal;font-stretch:normal;text-align:start;line-height:125%;writing-mode:lr-tb;text-anchor:start;fill:#000000;fill-opacity:1;stroke:none;font-family:Verdana"
       d="m 3188.838,2607.1816 -12.6425,7.567 0,27.8025 -5.4363,0 0,-24.4866 -22.6301,13.6037 0,28.7378 -5.4362,0 0,-25.4218 -12.6426,7.5669 0,-14.2839 12.6426,-7.567 0,-42.0015 -12.6426,7.5671 0,-14.2839 12.6426,-7.567 0,-27.8026 5.4362,0 0,24.4867 22.6301,-13.6037 0,-29.5881 5.4363,0 0,26.2721 12.6425,-7.567 0,14.2838 -12.6425,7.5671 0,42.0015 12.6425,-7.5671 0,14.284 m -18.0788,-3.401 0,-42.0014 -22.6301,13.6036 0,42.0014 22.6301,-13.6036"
       id="path1458" />
    <path
       inkscape:connector-curvature="0"
       style="font-size:40px;font-style:normal;font-variant:normal;font-weight:normal;font-stretch:normal;text-align:start;line-height:125%;writing-mode:lr-tb;text-anchor:start;fill:#000000;fill-opacity:1;stroke:none;font-family:Verdana"
       d="m 2814.8637,2972.7518 -12.6425,7.567 0,27.8026 -5.4363,0 0,-24.4867 -22.63,13.6038 0,28.7378 -5.4363,0 0,-25.4219 -12.6425,7.567 0,-14.2839 12.6425,-7.567 0,-42.0015 -12.6425,7.5671 0,-14.2839 12.6425,-7.567 0,-27.8026 5.4363,0 0,24.4867 22.63,-13.6038 0,-29.588 5.4363,0 0,26.2721 12.6425,-7.567 0,14.2838 -12.6425,7.5671 0,42.0015 12.6425,-7.5671 0,14.2839 m -18.0788,-3.4009 0,-42.0014 -22.63,13.6035 0,42.0015 22.63,-13.6036"
       id="path1460" />
    <path
       inkscape:connector-curvature="0"
       style="font-size:40px;font-style:normal;font-variant:normal;font-weight:normal;font-stretch:normal;text-align:start;line-height:125%;writing-mode:lr-tb;text-anchor:start;fill:#000000;fill-opacity:1;stroke:none;font-family:Verdana"
       d="m 2314.8308,3174.4457 -8.1242,7.567 0,27.8026 -3.4935,0 0,-24.4867 -14.5424,13.6038 0,28.7378 -3.4935,0 0,-25.4218 -8.1242,7.5669 0,-14.2839 8.1242,-7.567 0,-42.0015 -8.1242,7.5671 0,-14.2839 8.1242,-7.567 0,-27.8026 3.4935,0 0,24.4867 14.5424,-13.6038 0,-29.588 3.4935,0 0,26.2721 8.1242,-7.567 0,14.2838 -8.1242,7.5671 0,42.0015 8.1242,-7.5671 0,14.2839 m -11.6177,-3.4009 0,-42.0014 -14.5424,13.6035 0,42.0015 14.5424,-13.6036"
       id="path1462" />
  </g>
</svg>
